<?xml version="1.0" standalone="no"?><!DOCTYPE svg PUBLIC "-//W3C//DTD SVG 1.1//EN" "http://www.w3.org/Graphics/SVG/1.1/DTD/svg11.dtd" ><svg xmlns="http://www.w3.org/2000/svg"><metadata></metadata><defs><font id="【微博：暖色君】恋文体 常规:Version 2.00" horiz-adv-x="1105"><font-face font-family="【微博：暖色君】恋文体" font-weight="400" font-stretch="normal" units-per-em="1060" panose-1="3 0 5 0 0 0 0 0 0 0" ascent="1040" descent="-594" x-height="0" bbox="-45 -291 1101 856" underline-thickness="50" underline-position="-100" unicode-range="U+0000-ff01" /><missing-glyph horiz-adv-x="0"  /><glyph glyph-name="" unicode="-" d="M86 264 L72 308 Q160 338 251 346 Q342 354 438 354 L453 310 Q359 293 269 287 Q179 281 86 264 Z" /><glyph glyph-name="" unicode="." d="M83 -35 L59 30 Q65 57 84 66.5 Q103 76 128 69 Q141 57 147.5 42 Q154 27 154 7 L111 -35 L83 -35 Z" /><glyph glyph-name="" unicode="t" d="M254 -68 L234 -36 Q245 5 245 45.5 Q245 86 245 129 Q245 243 234 358 Q223 473 223 590 L222 588 L142 593 L52 587 L27 607 L27 637 Q135 649 245 659.5 Q355 670 466 665 L497 639 L497 611 L459 598 L293 604 Q280 576 282.5 541 Q285 506 285 468 Q301 354 301 231 Q301 108 306 -13 L288 -62 L254 -68 Z" /><glyph glyph-name="" unicode="&#x4e00;" d="M210 235 Q183 241 157.5 249 Q132 257 107 276 L95 308 L116 335 L143 335 Q165 312 191.5 304.5 Q218 297 243 297 Q406 318 567.5 342.5 Q729 367 900 367 L953 350 L961 314 L921 294 Q892 306 860 306 Q828 306 795 306 Q649 301 504 273.5 Q359 246 210 235 Z" /><glyph glyph-name="" unicode="&#x4e0b;" d="M540 -182 L524 -175 Q512 -134 509.5 -89.5 Q507 -45 507 -2 L512 129 L507 173 Q518 234 518 299 Q518 364 518 428 Q503 448 486 473.5 Q469 499 469 533 L509 545 Q534 520 548 493 Q562 466 579 437 L579 217 L568 140 L573 9 L600 3 L606 -45 L572 -176 L540 -182 ZM798 178 L784 219 L818 243 Q777 271 728 301 Q679 331 622 354 L615 390 L655 404 Q717 375 774.5 342 Q832 309 890 263 L896 225 Q871 206 851 192 Q831 178 798 178 ZM196 511 L98 533 L91 570 L136 583 L213 572 Q386 605 558 643.5 Q730 682 910 709 L925 665 Q743 620 560.5 582 Q378 544 196 511 Z" /><glyph glyph-name="" unicode="&#x4e0d;" d="M482 -117 L462 -79 Q474 -11 490.5 56.5 Q507 124 502 200 Q490 248 479.5 297 Q469 346 444 394 L487 409 L530 356 Q540 294 554 231 Q568 168 563 95 Q551 46 540.5 -6 Q530 -58 518 -111 L482 -117 ZM104 31 L91 71 Q197 215 317 349 Q437 483 539 610 L501 614 Q415 609 328 603.5 Q241 598 166 558 L145 599 L165 625 Q299 670 438 670 Q577 670 713 710 L728 666 L626 615 Q506 469 380.5 327 Q255 185 134 31 L104 31 ZM904 138 Q863 190 814 236.5 Q765 283 719 329 L719 357 L760 371 Q812 330 861.5 283.5 Q911 237 945 180 L945 152 L904 138 Z" /><glyph glyph-name="" unicode="&#x4e16;" d="M485 -128 Q430 -123 372 -120 Q314 -117 268 -77 Q223 -31 225.5 35.5 Q228 102 228 162 L239 320 L235 336 L213 336 L162 330 L114 361 L114 390 L152 403 L207 392 L233 396 L233 456 L223 622 L242 649 L272 649 Q290 588 290 528 Q290 468 294 413 L299 413 L452 451 L452 536 L446 542 Q452 578 455 608.5 Q458 639 476 670 L512 676 L524 636 Q514 614 514 589.5 Q514 565 508 544 L513 452 L545 452 L682 468 L682 652 L665 726 L685 752 L713 752 Q743 687 743 618.5 Q743 550 743 485 L752 485 Q789 501 824.5 509.5 Q860 518 901 528 L928 516 L934 481 Q886 457 836.5 445.5 Q787 434 743 425 L727 234 L745 192 L711 172 L660 178 L567 162 L562 147 L546 141 L540 115 L513 101 L486 114 Q463 177 468.5 251 Q474 325 458 386 L447 391 L295 353 L295 326 L301 250 L290 -5 L346 -55 L556 -66 Q654 -50 754.5 -28 Q855 -6 947 39 L962 -3 L942 -29 Q831 -73 719 -98 Q607 -123 485 -128 ZM665 238 L665 244 L681 407 L672 407 L519 386 L530 207 L533 207 Q565 223 601.5 228 Q638 233 665 238 Z" /><glyph glyph-name="" unicode="&#x4e1c;" d="M409 827 Q368 802 382.5 738.5 Q397 675 397 628 Q397 581 311 594 Q287 602 250 616 Q213 630 186.5 624 Q160 618 164 577 Q209 549 270 549 Q340 544 393 520 Q389 422 374.5 332 Q360 242 344 164 Q381 139 409 156 Q446 176 483 198.5 Q520 221 544 213 Q528 168 532 117 Q536 66 528 25 Q495 8 504 -41 Q516 -98 520 -131 Q540 -176 560.5 -161.5 Q581 -147 590 -102 Q606 -61 590 -20 Q590 131 614 258 Q643 282 690 294.5 Q737 307 767.5 323.5 Q798 340 790 385 Q761 401 720.5 399 Q680 397 700 360 Q675 356 646.5 339.5 Q618 323 601.5 325.5 Q585 328 606 373 Q614 422 591.5 463 Q569 504 528 487 Q520 446 530 399 Q540 352 538 313 Q536 274 479 266 Q438 237 434 259.5 Q430 282 436 321 Q442 360 434 397 Q442 422 444 460.5 Q446 499 460.5 524 Q475 549 524 540 Q577 549 644.5 559 Q712 569 761.5 595.5 Q811 622 823 671 Q753 663 680 647 Q614 635 569 680 Q565 651 577 639 Q598 622 598 618 Q602 606 565 602 L479 594 Q442 594 454 655 Q450 688 454 716 Q467 737 483 737 Q467 766 452.5 790.5 Q438 815 409 827 ZM225 201 Q184 160 213 102.5 Q242 45 274 8 Q295 -57 348 -63.5 Q401 -70 405 8 Q381 16 352 16 Q323 16 315 57 Q287 98 280.5 141 Q274 184 225 201 ZM761 143 Q770 94 786 57 Q802 20 794 -29 Q831 -57 847 -20 Q872 16 864 63.5 Q856 111 819 123 L761 143 Z" /><glyph glyph-name="" unicode="&#x4e2d;" d="M530 -186 L506 -123 Q523 -100 523 -71 Q523 -42 523 -16 L512 198 L502 198 L317 135 L304 179 Q357 214 407 233 Q457 252 507 268 L507 279 L495 367 L501 424 L499 426 Q437 416 375 399.5 Q313 383 245 361 L236 365 L236 365 Q240 330 259 295.5 Q278 261 297 222 L254 207 L208 260 Q184 322 171 387.5 Q158 453 146 520 L164 574 L198 581 L224 561 L224 534 L208 518 L223 423 L228 423 L269 434 L274 429 Q326 449 383.5 463 Q441 477 496 487 L501 541 Q485 601 490 666.5 Q495 732 473 788 L493 816 L522 816 Q557 739 554.5 654 Q552 569 562 493 L572 493 Q626 504 678 515 Q730 526 793 521 L846 486 L852 442 Q834 407 809.5 374 Q785 341 757 314 L752 310 L764 308 L795 314 L810 271 Q749 241 688.5 232.5 Q628 224 573 215 L573 50 L584 -98 L567 -178 L530 -186 ZM679 334 Q717 356 746 388 Q775 420 789 452 Q773 464 749.5 462 Q726 460 699 460 L562 433 L557 367 L562 292 L577 292 L679 334 Z" /><glyph glyph-name="" unicode="&#x4e30;" d="M487 856 Q467 811 487 778 L540 725 Q569 696 557 663 Q495 671 429.5 689.5 Q364 708 311 700 Q332 630 397 622 Q471 606 540 594 Q577 598 591.5 569 Q606 540 585 512 Q573 487 532 495 Q479 467 411.5 481 Q344 495 295 487 Q299 422 350 411.5 Q401 401 468.5 411.5 Q536 422 577 430 Q602 446 608 413.5 Q614 381 610 346 Q606 311 577 311 Q479 274 364 254 L127 229 Q131 180 180 176 Q229 164 288.5 178 Q348 192 381 201 Q442 205 499 229 Q561 246 614 233 Q618 111 616 -6 Q614 -123 577 -217 Q581 -278 605.5 -268 Q630 -258 650.5 -217 Q671 -176 671 -143 L692 266 Q725 274 772 270 Q819 266 849.5 274 Q880 282 872 328 Q831 352 771.5 337.5 Q712 323 680 340 Q659 401 692 442 Q725 475 757 508 Q757 549 733 544 L671 536 Q647 532 663 585 Q671 610 712 616 Q753 622 782 632.5 Q811 643 794 688 Q766 696 723 681.5 Q680 667 649 671 Q618 675 618 729 Q590 770 571.5 813 Q553 856 487 856 Z" /><glyph glyph-name="" unicode="&#x4e3a;" d="M409 770 Q389 766 374.5 747.5 Q360 729 381 708 Q401 655 446 618 Q491 569 487 524 Q438 512 393 530.5 Q348 549 317.5 555 Q287 561 274 508 Q315 463 380.5 467 Q446 471 504 463 L209 25 Q184 53 174 10 Q164 -33 160 -65 Q176 -90 192 -74 Q217 -61 235.5 -28.5 Q254 4 270 20 Q401 229 557 422 Q581 377 571 317.5 Q561 258 598 213 Q598 192 618 164 Q647 139 667 135 Q696 131 700 168 Q622 266 614 418 Q581 463 610 491 Q635 512 686 524 Q737 536 770 532 Q802 360 749 223 Q696 86 635 -37 Q618 -70 597.5 -84 Q577 -98 581 -33 Q569 0 544 8 Q528 12 536 -41 Q520 -86 538.5 -123 Q557 -160 585 -160 Q622 -168 647 -119 Q704 -29 757.5 75.5 Q811 180 833.5 301 Q856 422 827 553 Q811 594 782 596 Q753 598 716 590 Q688 581 663 585 Q680 610 708 663 Q741 708 696 729 Q651 692 622 643 Q602 590 557 553 L409 770 Z" /><glyph glyph-name="" unicode="&#x4e50;" d="M614 770 Q553 733 469 714.5 Q385 696 295 692 Q266 655 299 608 Q332 561 336 508 L336 135 Q393 151 423.5 198.5 Q454 246 516 266 Q544 266 538 213 Q532 160 536 119 Q520 102 509.5 75.5 Q499 49 512 8 Q516 -16 528 -47 Q540 -78 558.5 -84 Q577 -90 590 -53 Q610 -20 606 41 Q602 94 606 139 L606 233 Q602 278 612 315 Q622 352 671 352 Q692 373 725 381 Q766 389 790 409 Q819 422 802 467 Q737 467 692 432 Q647 397 598 397 Q602 463 573 522 Q544 581 487 557 Q499 516 517.5 475 Q536 434 528 373 Q516 323 471 300.5 Q426 278 389 250 Q381 332 389 440.5 Q397 549 368 630 Q405 651 454 655 Q512 663 557 675 Q577 675 610 695.5 Q643 716 649 738.5 Q655 761 614 770 ZM811 221 Q790 197 804.5 151.5 Q819 106 823 66 Q876 61 884 100 Q892 139 869.5 180 Q847 221 811 221 ZM160 184 Q131 135 174 92 Q217 49 262 29 Q307 33 315 67.5 Q323 102 270 102 Q242 119 217 151 Q201 180 160 184 Z" /><glyph glyph-name="" unicode="&#x4e70;" d="M811 798 Q688 761 557 730.5 Q426 700 274 692 Q242 667 260 644.5 Q278 622 323 635 Q364 635 407 645 Q450 655 479 630 Q475 590 493.5 551 Q512 512 483 487 Q422 475 364 495 Q315 508 268 520 Q221 532 176 508 Q176 463 211 454.5 Q246 446 295 450 Q344 454 377 442 L442 430 Q479 430 501.5 415.5 Q524 401 499 352 Q450 356 386.5 337.5 Q323 319 262 311 Q250 258 286.5 256 Q323 254 374.5 268 Q426 282 454 287 Q491 311 499 282 Q516 254 495 225 Q483 192 442 201 Q360 168 266 153.5 Q172 139 98 102 Q94 61 125 57 Q156 53 190.5 63.5 Q225 74 250 78 Q315 86 368 115 Q430 143 487 135 Q467 25 403.5 -63 Q340 -151 221 -156 Q176 -135 180 -155.5 Q184 -176 219 -198.5 Q254 -221 295 -205 Q405 -180 459 -90 Q516 -8 540 98 Q553 168 606 200.5 Q659 233 718.5 260 Q778 287 798 352 Q782 373 745 368.5 Q708 364 708 328 Q675 315 640.5 286.5 Q606 258 573 270 Q585 295 603.5 323.5 Q622 352 598 377 Q565 413 606 430 L675 463 Q737 532 804.5 593.5 Q872 655 909 753 Q909 786 876 798 Q847 802 811 798 ZM749 721 Q794 729 806 721 Q827 708 794 684 Q749 630 700 575 Q651 520 598 475 Q565 467 565 508 L565 594 Q565 639 528 643 Q491 655 504 663 Q524 667 557 671 Q590 675 610 684 L749 721 ZM475 651 L479 651 Q491 655 485 645 Q479 635 475 651 ZM696 119 Q667 94 680 70 Q700 45 730.5 24.5 Q761 4 782 -20 Q819 -53 833 -104.5 Q847 -156 884 -188 Q929 -160 919 -117 Q909 -74 874 -33 Q839 8 806 29 Q790 61 761 94 Q741 119 696 119 Z" /><glyph glyph-name="" unicode="&#x4e86;" d="M469 -167 Q417 -144 365 -122 Q313 -100 267 -65 L255 -20 L296 -5 Q336 -46 382 -67 Q428 -88 468 -104 L491 -90 Q512 -22 520 56.5 Q528 135 523 216 L479 403 Q519 472 582 513 Q645 554 690 598 L584 604 L534 598 L399 604 Q350 587 292.5 587 Q235 587 184 576 L158 596 L158 625 Q250 643 343 654 Q436 665 529 665 L579 659 L740 665 Q753 645 756 628 Q759 611 759 585 Q708 529 647.5 488 Q587 447 540 395 L540 371 Q573 300 581.5 217.5 Q590 135 584 46 Q573 3 565 -41.5 Q557 -86 539 -126 L469 -167 Z" /><glyph glyph-name="" unicode="&#x4e8e;" d="M430 -199 L372 -170 L353 -113 L395 -98 L433 -137 L457 -137 L476 -128 Q501 -103 501 -65.5 Q501 -28 507 5 L507 319 L497 319 Q404 303 306 289.5 Q208 276 111 253 L96 296 Q195 338 301.5 348.5 Q408 359 506 385 L491 581 L475 581 L261 571 L224 589 L210 635 L252 650 Q280 627 317 629.5 Q354 632 393 632 Q484 643 574.5 654 Q665 665 763 671 L777 629 Q733 604 689.5 584.5 Q646 565 596 554 L583 595 L584 597 L582 598 L552 593 L552 561 L563 387 L583 387 Q676 408 771.5 410.5 Q867 413 964 431 L984 370 Q874 352 767.5 347 Q661 342 568 326 L568 4 Q568 -46 557 -93.5 Q546 -141 511 -182 L430 -199 Z" /><glyph glyph-name="" unicode="&#x4efd;" d="M630 798 Q606 757 626 737 Q655 716 680 696 Q708 610 759.5 530 Q811 450 888.5 403 Q966 356 1077 368 Q1101 373 1101 401 Q1101 405 1081 418 Q1044 430 1003 418 Q888 459 827 544 Q757 639 716 745 L688 782 Q667 802 630 798 ZM209 766 Q192 725 188 665.5 Q184 606 143 569 Q115 504 45 450 Q-12 397 -41 328 Q-33 315 -25 311 Q-8 299 8 311 Q33 332 53 360 Q82 397 102 409 Q119 434 131 446 Q135 459 135 405 Q147 209 147 -29 Q139 -160 160 -176 Q192 -172 225 -123 Q242 -70 258 -29 Q258 12 262 45 Q266 86 242 66 Q229 33 219 20.5 Q209 8 209 61 Q209 184 198.5 313 Q188 442 205 549 Q229 590 251.5 657.5 Q274 725 233 766 L209 766 ZM499 680 Q483 651 454 622 Q430 585 438 557 Q479 581 479 553 Q479 540 459 499 Q446 471 442 446 Q401 385 364 332 Q319 278 299 201 Q340 188 364 213 Q381 246 405 287 Q422 332 446 356 Q487 422 528 504 Q553 585 536 680 L499 680 ZM680 381 Q635 356 581 332 Q532 319 487 291 Q438 274 409 221 Q434 180 459 184 Q487 197 520 229 Q540 266 573 266 Q610 278 604 260 Q598 242 573 213 L540 168 Q495 102 434 45 Q368 -20 332 -102 Q360 -115 385 -102 Q409 -74 438 -43 Q467 -12 487 12 Q544 78 597.5 145.5 Q651 213 712 274 Q725 168 702.5 67.5 Q680 -33 618 -86 Q606 -65 590 -37 Q573 4 561 4 Q553 12 553 -57 Q544 -115 573 -141.5 Q602 -168 635 -168 Q671 -160 692 -106 Q725 -53 761 53 Q790 156 778 250 Q757 356 680 381 Z" /><glyph glyph-name="" unicode="&#x4f11;" d="M154 -112 L135 -73 Q168 11 179 98 Q190 185 190 275 L184 287 L139 221 L110 221 L97 261 Q158 344 179.5 445 Q201 546 229 648 L266 655 L279 615 L213 360 Q245 323 248.5 270 Q252 217 252 161 Q240 95 229.5 26.5 Q219 -42 189 -106 L154 -112 ZM659 -101 Q643 -87 638 -70 Q633 -53 626 -35 L632 -7 L621 69 L626 166 L611 185 Q561 131 500 81.5 Q439 32 367 1 L353 44 Q427 107 503 169 Q579 231 621 311 L621 385 L612 385 Q564 369 514 355.5 Q464 342 407 342 L381 361 L381 391 Q446 403 506 416.5 Q566 430 621 445 L621 662 L614 669 L635 698 L664 698 Q688 644 683 580.5 Q678 517 686 470 Q725 479 773.5 484.5 Q822 490 869 507 L896 487 L896 459 Q842 434 787 426 Q732 418 687 408 L683 380 L688 315 L683 230 Q762 178 841.5 106.5 Q921 35 1005 -26 L1005 -55 L965 -75 L693 150 L683 31 L700 -88 L659 -101 Z" /><glyph glyph-name="" unicode="&#x4f60;" d="M205 798 Q201 712 190.5 624 Q180 536 135 475 Q102 413 53 360 Q8 299 -33 242 Q-16 197 18.5 223.5 Q53 250 66 278 Q90 295 110.5 334 Q131 373 160 360 L160 -102 Q209 -98 217 -55 Q225 -12 221 47 Q217 106 221 151 Q213 270 213 397 Q213 516 250 610 Q262 663 260 726.5 Q258 790 205 798 ZM495 798 Q471 770 479 721 L487 618 Q495 561 471 520 Q479 479 504 491 Q532 495 565 509.5 Q598 524 606 516 Q626 418 626 291 Q626 164 618 45 Q614 70 595.5 92.5 Q577 115 565 115 Q553 115 561 66 Q573 29 581.5 -20.5 Q590 -70 606 -106.5 Q622 -143 671 -143 Q700 -74 694 24.5 Q688 123 692 213 Q696 254 704 288.5 Q712 323 749 332 Q806 385 853.5 462.5 Q901 540 884 630 Q847 667 800 661 Q753 655 704 632.5 Q655 610 614 602 L561 569 Q536 561 540 622 Q544 675 542 728.5 Q540 782 495 798 ZM790 602 Q835 598 831 567 Q827 536 804.5 499.5 Q782 463 761 446 Q753 426 733 405 Q712 377 700 377 Q688 377 690 420 Q692 463 675 499 Q667 536 659 557 Q692 565 726.5 575 Q761 585 790 602 ZM504 336 Q483 282 475 212.5 Q467 143 438 86 Q430 41 397 4 Q356 -29 368 -70 Q430 -74 454 -12 Q487 49 499 102 Q528 147 542.5 214.5 Q557 282 532 336 L504 336 ZM823 168 Q823 131 868 98.5 Q913 66 933 29 Q946 8 972.5 -22.5 Q999 -53 1019 -57 Q1048 -65 1060 -25 L970 86 Q925 139 864 168 L823 168 Z" /><glyph glyph-name="" unicode="&#x505a;" d="M957 -190 Q917 -125 876 -62 Q835 1 807 56 Q780 6 730 -49.5 Q680 -105 618 -144 L566 -156 L539 -136 L539 -106 Q587 -95 624 -65 Q661 -35 699 2 L773 129 Q742 170 715 216 Q688 262 649 296 L649 325 L689 338 Q736 303 758 258.5 Q780 214 806 184 L925 420 L910 424 Q852 418 790 409.5 Q728 401 677 367 L640 386 Q626 405 626 425.5 Q626 446 626 463 L636 511 L629 511 L525 464 L513 499 L508 499 L486 495 L486 489 L491 341 L463 266 L428 259 L407 293 Q430 333 430 384 Q430 435 430 479 L394 489 Q379 478 356 475.5 Q333 473 307 473 L292 514 Q325 534 358.5 539 Q392 544 420 550 L420 598 L391 698 L411 725 L439 725 Q464 683 472.5 638.5 Q481 594 481 556 L501 556 L639 567 L650 563 Q654 599 656.5 649 Q659 699 689 740 L725 748 L737 708 Q720 641 709.5 573 Q699 505 688 437 L689 437 Q752 469 826 474 Q900 479 981 486 L994 434 L847 113 Q878 40 925 -25.5 Q972 -91 1001 -175 L957 -190 ZM72 -134 L53 -95 Q86 -6 97 83.5 Q108 173 102 270 L72 361 L35 345 L14 381 Q71 450 111.5 525.5 Q152 601 169 686 L203 692 Q219 678 219 660.5 Q219 643 219 625 Q191 569 169 514.5 Q147 460 121 407 Q153 344 161.5 264 Q170 184 164 102 Q159 41 142.5 -14 Q126 -69 108 -127 L72 -134 ZM381 -42 Q361 -28 350 -8.5 Q339 11 327 28 Q310 78 291.5 124.5 Q273 171 260 224 L280 250 L309 250 L332 195 L337 195 Q396 217 459.5 236.5 Q523 256 597 256 L628 225 L628 161 Q622 132 602.5 112 Q583 92 567 76 L584 68 L590 33 Q536 8 484.5 -2.5 Q433 -13 381 -42 ZM449 58 L567 164 L567 194 L535 194 Q482 183 433.5 167 Q385 151 352 122 L401 34 L449 58 Z" /><glyph glyph-name="" unicode="&#x505c;" d="M624 -199 L603 -165 Q623 -145 641.5 -126 Q660 -107 665 -88 L665 -12 L654 157 L657 167 L628 167 L410 133 L395 177 Q506 217 615.5 225 Q725 233 845 233 L859 192 Q820 167 781 172.5 Q742 178 711 169 Q720 108 723.5 36.5 Q727 -35 727 -107 Q715 -130 698 -155.5 Q681 -181 651 -199 L624 -199 ZM187 -107 L168 -62 Q179 48 193 157 Q207 266 201 379 L195 387 L90 276 L62 276 L42 309 Q93 410 133.5 508 Q174 606 213 707 L260 721 L274 680 Q235 624 215.5 561 Q196 498 172 449 L175 447 L220 458 L251 427 Q262 381 262 334.5 Q262 288 262 238 L224 -99 L187 -107 ZM292 122 L271 157 Q294 197 304.5 240.5 Q315 284 333 331 L375 339 L388 299 L326 130 L292 122 ZM863 216 L850 256 L892 309 Q882 319 861.5 316.5 Q841 314 819 314 L495 243 L457 268 L457 297 L498 311 L503 306 Q593 326 689 351 Q785 376 890 376 L955 352 L961 302 L892 216 L863 216 ZM499 341 Q474 384 466 425 Q458 466 446 512 L465 550 L500 556 L511 534 L523 534 Q598 561 678 569 Q758 577 850 572 L863 521 Q850 491 827.5 476.5 Q805 462 798 459 L829 451 L836 415 Q776 391 708 396 Q640 401 589 367 L561 388 L561 417 Q613 452 670.5 471 Q728 490 759 507 L693 511 Q645 506 601.5 494.5 Q558 483 519 474 L519 447 L542 354 L499 341 ZM373 570 L358 613 Q424 643 490 651 Q556 659 616 669 L616 717 Q606 731 591 746 Q576 761 584 789 L624 802 Q660 771 671.5 737 Q683 703 678 670 L704 670 L948 682 L963 638 Q813 614 666 609 Q519 604 373 570 Z" /><glyph glyph-name="" unicode="&#x513f;" d="M824 -133 Q768 -128 720.5 -105.5 Q673 -83 628 -44 Q577 29 574.5 117 Q572 205 561 287 L572 414 L572 649 L590 714 L624 720 Q639 704 639 686.5 Q639 669 639 650 L634 645 L634 413 L622 260 Q633 190 636 111.5 Q639 33 692 -19 Q728 -51 776.5 -61.5 Q825 -72 876 -72 Q921 -26 924 38.5 Q927 103 945 167 L978 175 Q999 154 996.5 133 Q994 112 994 91 Q989 36 977.5 -20 Q966 -76 921 -115 Q903 -133 877.5 -133 Q852 -133 824 -133 ZM139 -112 L108 -87 L108 -57 L147 -45 L162 -49 Q192 -24 221.5 8.5 Q251 41 273 72 Q321 228 334.5 389 Q348 550 371 719 L407 725 L421 686 Q404 489 385 286 Q366 83 234 -72 Q216 -89 193 -100.5 Q170 -112 139 -112 Z" /><glyph glyph-name="" unicode="&#x529b;" d="M686 -139 Q640 -115 609 -73.5 Q578 -32 556 8 L556 35 L597 49 Q621 13 645.5 -22 Q670 -57 700 -78 L720 -78 Q739 -72 752 -59.5 Q765 -47 781 -31 L818 76 L818 372 L799 397 L785 401 L546 401 L513 397 Q491 253 417 123.5 Q343 -6 226 -111 L183 -129 L150 -84 L171 -55 Q199 -55 217 -31.5 Q235 -8 258 9 Q333 95 381.5 192.5 Q430 290 451 396 L354 396 L189 379 L163 399 L163 429 Q239 446 313 451.5 Q387 457 458 457 Q463 512 471 574.5 Q479 637 485 694 L477 700 L497 740 L533 748 L547 707 L541 700 L547 625 Q524 586 527 537 Q530 488 521 457 L538 457 L543 463 L797 463 L845 445 L879 376 L879 74 Q862 24 848 -26 Q834 -76 783 -116 Q761 -128 738 -133.5 Q715 -139 686 -139 Z" /><glyph glyph-name="" unicode="&#x52aa;" d="M191 -153 L176 -111 L196 -86 Q246 -69 286.5 -33.5 Q327 2 364 34 Q386 60 404.5 89.5 Q423 119 433 147 L432 148 Q382 143 338.5 118.5 Q295 94 236 82 L210 102 L210 132 L266 157 L271 152 Q312 171 359 190.5 Q406 210 457 210 Q467 233 472 265 Q477 297 472 329 L466 359 L491 390 L518 390 Q539 376 534 356 Q529 336 533 328 L659 470 L560 522 L547 568 L590 582 Q613 553 642.5 542.5 Q672 532 694 518 L795 668 L746 672 L613 635 L602 614 L557 606 L524 646 L556 679 Q618 707 687 723.5 Q756 740 834 734 L865 722 L872 689 Q849 633 813.5 583.5 Q778 534 749 490 Q792 466 841 431 Q890 396 947 378 L955 343 L921 323 Q863 340 813.5 378.5 Q764 417 714 441 Q679 391 629.5 336 Q580 281 527 249 L519 225 L539 221 L775 232 L826 192 Q839 173 839 153 Q839 133 839 111 Q828 56 828 -5 Q828 -66 782 -112 Q764 -130 738 -130 Q712 -130 690 -130 Q640 -118 590 -101.5 Q540 -85 500 -39 L470 34 L513 47 Q532 17 556 -7 Q580 -31 606 -46 L738 -68 Q771 -29 766 36 Q761 101 777 153 Q768 161 761.5 168 Q755 175 741 171 Q680 165 614.5 165 Q549 165 494 155 Q484 109 456.5 59.5 Q429 10 389 -30 Q346 -63 299 -99 Q252 -135 191 -153 ZM171 170 L144 190 L144 218 L206 268 L299 413 L157 450 L144 499 L191 583 L183 585 L109 568 L94 611 Q127 630 160 638.5 Q193 647 221 651 L226 733 L213 771 L254 783 L282 771 L292 665 Q325 674 371.5 674 Q418 674 463 674 L495 661 L501 626 L467 606 L454 611 L393 454 L450 439 L482 446 L497 397 L451 377 L366 404 Q324 348 288.5 285 Q253 222 191 177 L171 170 ZM336 473 L336 478 L392 613 L315 613 L258 598 L208 496 Q234 483 272 480.5 Q310 478 336 473 Z" /><glyph glyph-name="" unicode="&#x52b3;" d="M557 798 Q544 757 530 722.5 Q516 688 454 700 Q405 684 377 708 L323 757 Q299 778 262 753 Q262 725 245.5 700 Q229 675 229 663 Q229 643 280.5 645 Q332 647 344 604 Q356 561 364 536 Q266 532 266 426 Q258 450 239.5 481 Q221 512 198.5 522 Q176 532 160 491 Q188 442 210.5 376.5 Q233 311 250 242 Q266 201 309 190.5 Q352 180 397 205 Q409 180 376.5 151.5 Q344 123 332 94 Q295 49 252 8 Q209 -33 184 -90 Q209 -127 231.5 -112.5 Q254 -98 276.5 -65.5 Q299 -33 315 -20 Q381 53 440 125 Q499 197 569 266 Q651 278 665.5 233 Q680 188 651 137 Q622 86 597.5 28.5 Q573 -29 532 -74 Q528 -16 495 0 Q471 8 479 -70 Q471 -135 514 -155.5 Q557 -176 577 -119 Q626 -33 685.5 61.5 Q745 156 725 270 Q712 299 680 315 Q655 328 622 336 Q688 385 755.5 436 Q823 487 843 553 Q794 585 721 577 L590 553 Q553 544 504 549 Q467 549 516 585 Q532 635 587.5 641 Q643 647 696 651 Q749 655 761 688 Q753 725 716.5 723 Q680 721 645 714.5 Q610 708 598 725 Q614 753 610 779.5 Q606 806 557 798 ZM389 630 Q426 639 454 635 Q491 626 446 598 Q430 569 409 561 Q397 553 397 602 L389 630 ZM708 516 Q745 516 733 501.5 Q721 487 696 466.5 Q671 446 659 434 Q630 409 610 409 Q590 409 565 426 Q528 397 511.5 344 Q495 291 438 282 Q397 270 358 268 Q319 266 303 299 Q299 332 278 373 Q266 409 291 422 L344 459 Q377 471 422 467 L708 516 Z" /><glyph glyph-name="" unicode="&#x5305;" d="M562 -171 Q484 -166 410 -154.5 Q336 -143 274 -104 Q261 -80 258.5 -51.5 Q256 -23 256 5 L319 142 L305 145 L266 135 L239 155 L239 183 Q302 212 359 241.5 Q416 271 464 330 L482 356 Q457 364 422 364 Q387 364 350 364 L289 349 L284 327 L238 315 L212 335 L212 362 Q264 409 331 420 Q398 431 470 426 L551 408 L557 363 Q534 318 498.5 276.5 Q463 235 417 201 L408 201 Q393 139 352 82 Q311 25 317 -47 L357 -82 Q416 -98 481 -104 Q546 -110 611 -110 Q671 -104 727 -96 Q783 -88 824 -46 Q851 2 872.5 50.5 Q894 99 894 156 L928 164 Q950 150 950 129 Q950 108 950 85 Q933 41 914 -6 Q895 -53 866 -92 Q805 -143 724.5 -154.5 Q644 -166 562 -171 ZM620 80 L551 132 L551 162 L591 175 Q604 162 617 151.5 Q630 141 648 141 Q668 147 681 159.5 Q694 172 709 188 Q758 279 769 379 Q780 479 780 582 L760 620 L743 620 Q585 588 424.5 555 Q264 522 120 422 L92 443 L92 471 Q169 543 215.5 622 Q262 701 295 795 L332 803 L344 763 Q322 712 300 659.5 Q278 607 249 563 L251 562 Q375 606 509 635.5 Q643 665 782 682 Q824 641 835 588 Q846 535 841 473 Q835 369 807.5 275 Q780 181 713 104 Q690 91 667.5 85.5 Q645 80 620 80 Z" /><glyph glyph-name="" unicode="&#x538b;" d="M614 729 Q483 708 336 700 Q291 712 248 696 Q205 680 246 643 Q254 581 239.5 505.5 Q225 430 225 360 Q221 209 204.5 72 Q188 -65 143 -176 Q111 -205 121 -246 Q131 -287 180 -254 Q221 -188 233 -102 L270 70 Q274 213 286.5 342 Q299 471 315 618 Q360 626 403 638.5 Q446 651 504 643 L692 667 Q712 700 685.5 718.5 Q659 737 614 729 ZM528 495 Q524 459 532 424 Q540 389 534 370.5 Q528 352 483 352 Q426 332 364 311 Q307 282 299 225 Q332 201 356 225 Q389 242 421.5 264.5 Q454 287 499 282 Q536 299 546.5 268 Q557 237 550.5 194 Q544 151 536 135 Q467 131 395 114.5 Q323 98 299 49 Q307 16 335.5 22.5 Q364 29 397 49 Q430 61 459 57 Q540 66 626 80 Q712 94 802 78 Q790 57 806 33 Q831 12 853.5 12 Q876 12 872 66 Q917 78 901 115 Q892 147 847 147 Q839 188 831 231 Q823 274 802 295 Q753 291 753 266 Q757 233 771.5 198.5 Q786 164 770 143 L696 143 Q651 139 620.5 145 Q590 151 614 192 Q590 278 663.5 319 Q737 360 819 336 Q872 352 864 378.5 Q856 405 823 417.5 Q790 430 749 409 Q696 385 651 409 Q606 426 590 475 Q573 504 528 495 Z" /><glyph glyph-name="" unicode="&#x53d1;" d="M504 847 L438 671 Q401 585 364 499 Q340 479 284.5 469 Q229 459 201 467 Q229 499 270 548.5 Q311 598 317 647 Q323 696 270 733 Q246 712 248 677.5 Q250 643 246 606 Q242 569 213 553 Q180 512 127 475 Q86 446 53 397 Q102 368 167.5 388.5 Q233 409 299 409 Q323 422 317 399.5 Q311 377 299 356 Q274 332 274 315 Q246 209 192 131 Q127 53 82 -29 Q66 -41 51.5 -76 Q37 -111 45 -135 Q53 -168 98 -147 Q143 -90 184 -16 Q217 57 262 115 Q307 184 381 221 L450 143 Q475 115 460.5 88 Q446 61 422 29 Q385 4 377 -20 Q344 -61 319 -29 Q303 0 295 33 Q246 -8 266 -45 Q295 -90 338 -102.5 Q381 -115 409 -65 L467 0 Q491 29 524 53 Q622 -37 733 -123 Q827 -213 958 -278 Q983 -237 966 -209 Q954 -168 921 -131 Q897 -102 876 -90 Q880 -127 894.5 -157.5 Q909 -188 856 -160 Q778 -102 702 -30.5 Q626 41 561 102 Q598 160 635 229 Q680 291 667 364 Q622 389 573 364 Q528 352 481 323.5 Q434 295 381 315 Q348 352 377 389 Q405 446 454 446 Q524 479 599.5 497.5 Q675 516 737 557 Q749 590 704 602 Q659 626 618 618 Q581 602 618 565 L524 524 Q475 512 438 512 Q459 594 510 669.5 Q561 745 544 835 L504 847 ZM680 778 Q655 737 677.5 708.5 Q700 680 753 671 Q794 655 823 671 Q802 712 767.5 739 Q733 766 680 778 ZM573 299 Q602 311 602 282 Q590 266 577 237 Q561 221 561 201 Q540 176 520 160 Q499 160 474.5 190.5 Q450 221 450 233 Q450 258 491 266 L573 299 ZM319 274 L332 274 Q340 274 336 266 Q336 250 319 250 Q311 246 319 274 Z" /><glyph glyph-name="" unicode="&#x53ef;" d="M700 -173 L686 -131 Q753 -69 769 8.5 Q785 86 780 173 L780 503 L741 535 L741 563 L760 588 L789 588 Q807 570 824 550 Q841 530 841 506 L841 168 Q846 74 827 -11.5 Q808 -97 734 -165 L700 -173 ZM309 83 L266 138 L233 350 L253 376 L283 376 Q301 317 309 256 Q317 195 327 145 L343 140 L351 104 L309 83 ZM448 149 L435 191 Q470 231 502 266 Q534 301 529 342 L498 342 L383 296 L369 339 Q417 370 464.5 389 Q512 408 569 403 Q590 389 590 368.5 Q590 348 590 331 L574 268 L574 268 Q586 277 604 285.5 Q622 294 648 288 L663 246 Q602 228 556 195 Q510 162 448 149 ZM238 555 L201 573 L195 608 L233 621 L354 616 Q479 632 599.5 662 Q720 692 856 698 L869 657 Q850 643 838.5 625.5 Q827 608 798 615 L787 637 L764 637 Q640 604 508.5 582 Q377 560 238 555 Z" /><glyph glyph-name="" unicode="&#x540d;" d="M434 -154 Q387 -88 381.5 -14 Q376 60 359 133 L378 170 L399 175 L415 202 Q490 241 575 247 Q660 253 748 253 Q776 241 809.5 238.5 Q843 236 873 213 Q884 183 892.5 158 Q901 133 895 97 L845 18 L788 -24 L857 -43 L864 -79 L820 -98 L742 -87 Q699 -87 661.5 -100.5 Q624 -114 580 -120 L560 -86 L580 -59 Q646 -42 700.5 -7.5 Q755 27 808 71 Q824 86 831.5 106.5 Q839 127 834 152 L825 171 Q785 186 733 188.5 Q681 191 628 191 Q574 180 520.5 177.5 Q467 175 432 130 L426 94 Q437 35 445 -22 Q453 -79 477 -139 L434 -154 ZM137 0 L124 40 Q197 125 273.5 202 Q350 279 427 340 L335 432 L311 438 L305 477 L312 493 L351 499 L480 381 Q530 426 576 480 Q622 534 654 584 L584 584 Q492 568 399.5 549 Q307 530 214 484 L200 526 L208 541 Q291 579 361.5 650.5 Q432 722 521 763 L536 720 L427 622 L442 618 Q517 629 591 643 Q665 657 752 651 L765 611 Q637 434 473 297 Q309 160 167 0 L137 0 ZM665 577 L651 591 L665 604 L681 591 L665 577 Z" /><glyph glyph-name="" unicode="&#x541b;" d="M462 -137 L425 -94 L392 149 L410 198 L447 205 L459 153 L455 148 L460 140 Q532 187 620.5 203.5 Q709 220 809 215 L849 197 Q863 178 863 155 Q863 132 863 110 Q851 70 826 36.5 Q801 3 767 -25 L753 -34 L850 -53 L858 -88 Q843 -103 828 -103 Q813 -103 796 -103 L694 -97 L572 -137 L544 -117 L544 -88 Q608 -48 670.5 -15.5 Q733 17 781 77 Q797 92 799 112 Q801 132 801 154 L704 154 Q640 154 580 132 Q520 110 465 90 L465 62 L485 -76 L507 -81 L515 -117 L462 -137 ZM137 -121 L124 -80 Q202 21 264.5 122 Q327 223 378 330 L354 334 L243 305 L210 345 L243 378 L404 400 L428 509 L344 509 Q289 503 232 500 Q175 497 121 474 L107 517 Q178 564 263.5 564 Q349 564 428 570 Q441 588 443.5 618 Q446 648 465 673 L500 679 L514 640 L499 575 L534 575 L692 591 L692 660 L677 685 Q653 705 615.5 705 Q578 705 541 705 Q486 699 428.5 688.5 Q371 678 309 678 L282 697 L282 727 Q369 744 454.5 755.5 Q540 767 634 767 L724 727 Q748 697 750.5 663.5 Q753 630 753 596 L939 591 L945 554 Q908 535 872.5 530 Q837 525 799 512 L787 535 L742 535 L732 448 L752 443 L760 401 L682 371 L639 378 L447 351 Q399 228 327.5 113 Q256 -2 172 -113 L137 -121 ZM670 439 L670 466 L681 530 L666 530 L490 514 L470 412 L470 412 Q517 428 569.5 433.5 Q622 439 670 439 Z" /><glyph glyph-name="" unicode="&#x548c;" d="M290 -129 Q265 -91 267.5 -46.5 Q270 -2 270 37 L276 85 L268 109 Q242 91 206.5 61 Q171 31 126 18 L106 53 Q151 143 200 227 Q249 311 259 401 L256 401 L95 335 L69 355 L69 384 L249 526 L261 566 Q281 572 296 577 Q311 582 320 597 L326 606 L309 609 L136 575 L121 619 Q193 642 264.5 658.5 Q336 675 418 682 L430 642 Q407 595 364 557 Q321 519 316 474 L348 474 L428 479 L442 437 Q409 418 378.5 418 Q348 418 321 413 L321 288 L331 209 L444 252 L459 208 L337 147 L332 91 L338 31 L326 -122 L290 -129 ZM581 39 L549 72 Q527 151 524.5 230 Q522 309 516 392 L534 445 L568 453 Q583 438 583 422.5 Q583 407 583 397 L577 332 Q583 267 588.5 196 Q594 125 618 61 L581 39 ZM728 85 L702 104 L702 130 L709 144 Q754 173 797 202.5 Q840 232 877 275 Q887 294 887 323.5 Q887 353 887 375 L823 375 Q768 375 717 366.5 Q666 358 611 340 L596 383 Q674 430 756.5 433 Q839 436 923 436 L949 417 L949 291 Q932 263 917.5 235 Q903 207 876 184 L828 150 L856 146 L963 152 L978 109 Q916 90 853 87.5 Q790 85 728 85 ZM230 157 L270 177 L270 194 L264 221 L229 152 L228 154 L230 157 Z" /><glyph glyph-name="" unicode="&#x552f;" d="M576 -114 Q564 -101 551 -96 Q538 -91 519 -85 L506 -42 Q523 47 526 136.5 Q529 226 529 318 L515 406 L490 368 L455 360 L436 399 Q453 484 477.5 563.5 Q502 643 531 723 L566 730 L580 685 L526 511 L525 512 Q566 532 618.5 537.5 Q671 543 716 548 Q736 589 755.5 635 Q775 681 792 733 L839 746 L853 705 Q829 671 813 630.5 Q797 590 789 560 L846 560 L959 570 L974 528 Q924 504 877 501 Q830 498 787 498 L787 482 L803 368 L917 363 L924 327 Q898 307 864 307 Q830 307 803 307 L803 292 L808 226 L856 226 L943 233 L957 185 L820 76 L820 -30 L900 -30 L970 -24 L985 -67 Q935 -91 883.5 -88.5 Q832 -86 786 -115 Q768 -102 747 -102 Q726 -102 704 -102 L576 -114 ZM758 -41 L758 16 L758 16 L686 -43 L699 -46 L758 -41 ZM608 -31 L752 92 L752 160 L749 160 Q711 149 670 135.5 Q629 122 590 116 L575 -46 L577 -46 L608 -31 ZM201 61 L174 81 L174 108 Q205 134 240 139 Q275 144 295 174 L310 200 L310 443 L263 443 Q236 433 208.5 424.5 Q181 416 146 422 L137 425 L137 425 L142 419 L142 122 L149 80 L106 65 L81 120 L81 416 L64 495 L84 521 L114 521 L125 478 L131 478 Q184 478 233.5 494.5 Q283 511 348 504 L372 451 L372 197 L353 149 L398 144 L405 107 Q350 89 298.5 83.5 Q247 78 201 61 ZM815 143 L837 161 L814 164 L814 141 L813 141 L815 143 ZM742 220 L747 285 L743 302 L738 302 L593 269 L595 266 L591 177 L594 177 L742 220 ZM742 362 L742 411 L727 487 L688 487 L570 461 Q579 434 581.5 398.5 Q584 363 584 331 L616 331 L742 362 Z" /><glyph glyph-name="" unicode="&#x5584;" d="M389 -208 L357 -177 L313 2 L332 28 Q427 56 525.5 67 Q624 78 729 78 L784 66 L789 5 Q772 -41 735.5 -63.5 Q699 -86 676 -99 L788 -113 L795 -148 Q781 -169 760 -169 Q739 -169 717 -169 L565 -164 L533 -170 L519 -128 Q572 -87 629 -57 Q686 -27 721 12 L609 16 Q549 0 484.5 0 Q420 0 380 -39 Q391 -74 401.5 -109.5 Q412 -145 425 -187 L389 -208 ZM112 32 L99 75 Q175 110 251.5 121.5 Q328 133 386 154 Q364 165 349.5 199 Q335 233 317 269 L338 297 L366 297 L411 213 L433 202 L441 168 L433 161 L435 160 L461 169 L465 190 L459 197 Q482 227 479.5 264 Q477 301 477 334 L336 334 L181 306 L155 325 L155 355 Q236 379 315.5 389.5 Q395 400 477 395 L477 442 L467 442 L273 432 L248 451 L248 481 Q307 493 367 493 Q427 493 477 502 L477 508 L467 557 L407 557 L252 546 L225 566 L225 596 Q312 613 397 615.5 Q482 618 559 633 L559 639 L547 674 Q576 704 592 735.5 Q608 767 613 801 L606 808 L627 837 L656 837 L675 782 Q658 741 643.5 705 Q629 669 603 646 L604 646 L782 663 L796 620 Q724 590 653 590 Q582 590 522 570 L522 563 L531 515 L536 515 Q573 531 618 539.5 Q663 548 714 542 L751 524 L757 489 L723 469 Q700 481 673.5 481 Q647 481 620 481 L543 455 L539 401 L539 401 Q596 411 656.5 424.5 Q717 438 787 433 L802 390 Q735 372 669.5 361 Q604 350 543 340 L533 176 L553 176 L571 181 Q592 222 622 263.5 Q652 305 686 350 L733 364 L746 321 Q711 292 692 257 Q673 222 653 198 L865 187 L935 193 L949 151 Q921 131 893 131 Q865 131 838 126 L641 131 Q511 121 380 88 Q249 55 112 32 ZM442 627 L380 697 L345 783 L365 810 L395 810 Q407 762 434 724.5 Q461 687 486 641 L442 627 Z" /><glyph glyph-name="" unicode="&#x559c;" d="M390 -194 Q365 -146 345.5 -101.5 Q326 -57 326 -4 L346 21 L372 21 L393 11 Q457 49 531.5 57.5 Q606 66 689 59 L736 41 L743 -20 L668 -88 L634 -101 L747 -110 L754 -147 Q682 -171 608.5 -168.5 Q535 -166 467 -183 L441 -163 L441 -134 Q505 -94 567 -67 Q629 -40 671 -7 L530 -2 Q493 -12 455.5 -25.5 Q418 -39 394 -68 Q399 -91 418 -116.5 Q437 -142 431 -181 L390 -194 ZM116 3 L101 46 Q195 87 290.5 106 Q386 125 480 140 L486 167 Q515 179 536.5 195 Q558 211 578 231 L583 255 Q575 266 554.5 266 Q534 266 519 266 L430 233 L413 246 L405 218 L419 195 L441 183 L449 148 L410 129 Q383 136 371.5 156 Q360 176 348 193 L343 217 L347 233 Q327 270 318.5 313.5 Q310 357 293 398 L313 426 L340 426 L366 400 Q434 436 522.5 450 Q611 464 702 458 L716 419 Q698 383 670 360.5 Q642 338 621 327 L654 315 L662 281 Q645 254 641.5 220.5 Q638 187 612 171 L627 169 Q687 185 753 187.5 Q819 190 885 190 L971 173 L978 137 L922 118 Q888 129 850.5 129 Q813 129 775 129 Q612 108 446 75 Q280 42 116 3 ZM403 264 L403 281 L609 394 L594 397 Q535 391 476 378 Q417 365 372 329 Q376 312 381.5 294 Q387 276 403 264 L403 264 ZM320 451 L294 471 L294 498 Q340 539 389 571.5 Q438 604 467 648 L467 648 Q410 643 344.5 643 Q279 643 216 631 L190 651 L190 680 Q261 698 329.5 701 Q398 704 464 709 L468 724 L440 797 L461 824 L489 824 L528 714 L556 714 Q626 737 697 745 Q768 753 844 776 L865 728 Q781 692 694 680.5 Q607 669 530 654 Q530 624 513 598.5 Q496 573 477 558 L480 557 Q523 567 572.5 570 Q622 573 676 573 L690 529 Q591 512 501 498 Q411 484 320 451 ZM455 550 L458 547 L461 550 L458 554 L455 550 Z" /><glyph glyph-name="" unicode="&#x56e0;" d="M225 -140 L213 -106 L181 -100 Q163 -63 165.5 -24 Q168 15 168 53 L174 156 L163 210 L163 586 L150 611 L171 638 L200 638 L224 589 L224 211 L235 58 L229 -39 L236 -68 L231 -83 L234 -83 Q386 -67 542 -61 Q698 -55 845 -50 L845 94 L839 100 L839 602 L820 638 Q790 647 755.5 647 Q721 647 682 647 Q590 642 492 636 Q394 630 301 608 L287 652 Q413 698 547 700.5 Q681 703 814 708 L866 680 Q878 662 886.5 645 Q895 628 901 605 L901 102 L907 -109 L873 -129 L851 -113 L841 -117 L758 -112 Q628 -117 494.5 -122.5 Q361 -128 225 -140 ZM266 -30 L239 -10 L239 19 Q297 36 340 66 Q383 96 426 133 Q463 181 482.5 235 Q502 289 506 342 L486 342 Q437 331 385 325 Q333 319 274 326 L259 369 Q326 387 392 392 Q458 397 518 403 L523 524 L491 540 L477 587 L531 600 L584 547 L584 413 L581 403 L605 403 Q643 408 684 419 Q725 430 771 425 L802 412 L810 377 Q748 352 685.5 349.5 Q623 347 567 342 Q557 275 535 211.5 Q513 148 468 92 Q424 42 374 12 Q324 -18 266 -30 ZM738 -20 L724 21 L735 41 L567 236 L567 264 L607 278 Q670 226 719 160.5 Q768 95 819 33 L819 5 L738 -20 Z" /><glyph glyph-name="" unicode="&#x5728;" d="M215 -183 L195 -143 Q217 -92 228 -35.5 Q239 21 233 79 L198 197 L179 187 L146 220 L146 261 L159 288 L220 304 Q257 345 281 396.5 Q305 448 309 494 L305 494 L172 478 L146 497 L146 527 Q195 539 239 545 Q283 551 321 555 Q321 582 321 613.5 Q321 645 340 670 L375 676 L388 637 L383 568 L383 568 Q451 588 528 599 Q605 610 692 610 L706 561 Q617 549 532.5 535.5 Q448 522 371 507 Q360 433 327 364.5 Q294 296 246 237 Q268 180 284.5 117 Q301 54 295 -20 L250 -176 L215 -183 ZM434 -91 L403 -64 L403 -36 Q434 -23 462 -20 Q490 -17 515 -13 Q557 34 586.5 87.5 Q616 141 605 209 L590 249 L568 254 Q526 238 481.5 227 Q437 216 385 211 L359 230 L359 260 Q418 272 470 285.5 Q522 299 572 314 L572 319 L550 398 L570 425 L598 425 Q612 399 617 374 Q622 349 627 326 L643 326 L894 365 L908 322 Q842 298 776 287 Q710 276 650 271 L650 257 Q666 229 666 195.5 Q666 162 666 128 Q661 94 647 66.5 Q633 39 617 19 L639 15 Q697 27 760.5 37.5 Q824 48 890 43 L993 31 L999 -5 Q973 -25 945 -25 Q917 -25 889 -25 L764 -18 Q683 -35 601 -51 Q519 -67 434 -91 Z" /><glyph glyph-name="" unicode="&#x5927;" d="M165 -123 L150 -81 Q214 -40 268.5 14 Q323 68 371 122 Q404 186 420 262 Q436 338 455 401 L426 401 Q355 385 278.5 382.5 Q202 380 120 374 L107 418 Q201 441 293.5 443.5 Q386 446 469 462 L469 678 L461 684 L487 751 L522 758 L536 713 L524 685 L530 479 L550 479 Q648 490 746 498.5 Q844 507 940 540 L966 520 L966 491 Q869 450 762.5 439.5 Q656 429 563 419 Q627 340 679 242 Q731 144 807 63 Q844 30 879.5 -5 Q915 -40 957 -62 L982 -68 L990 -109 L949 -123 Q836 -66 753.5 29.5 Q671 125 610 236 Q600 284 562 319.5 Q524 355 517 383 Q491 291 458 178.5 Q425 66 325 -17 Q288 -45 254.5 -80.5 Q221 -116 165 -123 ZM521 413 L524 410 L527 413 L524 416 L521 413 ZM519 425 L529 415 L539 425 L519 425 Z" /><glyph glyph-name="" unicode="&#x5973;" d="M201 -145 L163 -126 L157 -90 L196 -78 L218 -83 Q292 -62 357 -16 Q422 30 475 90 Q434 113 380 126 Q326 139 268 156 L255 178 L351 407 L349 407 Q279 396 205 390.5 Q131 385 57 380 L32 399 L32 429 Q119 446 209 451.5 Q299 457 383 473 Q408 530 414 598 Q420 666 448 730 L489 737 L509 683 L486 671 Q481 626 472.5 573 Q464 520 451 485 L676 485 L711 496 L722 486 Q763 495 809.5 498 Q856 501 907 501 L965 484 L973 448 L934 428 Q905 440 872.5 440 Q840 440 808 440 L709 418 Q687 340 651.5 263 Q616 186 576 121 Q658 80 750.5 36.5 Q843 -7 939 -47 L945 -87 L906 -107 Q816 -57 723 -16 Q630 25 542 67 Q473 -12 387.5 -67 Q302 -122 201 -145 ZM519 144 Q562 209 594.5 279.5 Q627 350 648 422 L646 424 L430 424 L331 195 Q378 195 424.5 173 Q471 151 516 142 L519 144 Z" /><glyph glyph-name="" unicode="&#x5979;" d="M205 761 Q205 692 209 622 Q213 544 176 487 Q135 446 118.5 372.5 Q102 299 143 250 Q98 233 57 237 L-20 246 Q-45 225 -30.5 204.5 Q-16 184 8 168 L45 151 Q57 180 98 180 Q139 180 172 192 Q213 205 223 178 Q233 151 221 120.5 Q209 90 176 74 Q147 29 110.5 31 Q74 33 70 94 Q49 115 45 92.5 Q41 70 49 41 Q57 4 78 -8 Q115 -41 143 -25 Q180 -12 206.5 20.5 Q233 53 254 78 Q291 90 307 61 Q332 33 344 0 Q356 -41 381 -65 Q389 -86 405 -115 Q430 -147 446 -147 Q471 -151 475 -102 Q467 -41 426 2 Q385 45 350 88 Q315 131 336 192 Q348 246 407.5 272.5 Q467 299 520 291 Q516 168 606 131 Q700 86 827 94 Q954 102 1044 131 Q1073 160 1056 180 Q1044 192 1007 192 Q970 192 954 168 Q876 160 790 155.5 Q704 151 643 184 Q581 209 581 307 Q577 340 602 360 Q622 373 640.5 362.5 Q659 352 643 311 Q626 258 655 237 Q688 209 708 266 Q704 291 721 295 Q745 299 761 307 Q786 311 790 336 Q831 377 856 442 Q884 499 872 553 Q827 561 782 524 Q737 487 700 471 Q692 512 696 565 Q700 618 690 653 Q680 688 635 684 Q618 643 626 585 Q635 520 635 471 Q635 422 581 413 Q590 471 583.5 518 Q577 565 520 544 Q504 512 512 462.5 Q520 413 509.5 378.5 Q499 344 442 352 Q405 323 403 341.5 Q401 360 411.5 395 Q422 430 413 463 Q422 516 395 569 Q368 622 319 585 Q340 536 350 472.5 Q360 409 336 356 Q332 319 299 294.5 Q266 270 229 274 Q201 274 188 328 Q184 377 204.5 420 Q225 463 249.5 506 Q274 549 274 606 Q278 655 266 712 Q258 761 205 761 ZM770 434 L778 434 Q790 446 784 432 Q778 418 770 434 ZM757 426 Q778 418 763.5 399.5 Q749 381 735 377 Q721 373 737 409 L757 426 Z" /><glyph glyph-name="" unicode="&#x597d;" d="M651 -118 Q620 -93 603.5 -59.5 Q587 -26 571 7 Q554 45 540.5 82.5 Q527 120 496 151 L417 180 L411 214 Q476 249 544 263 Q612 277 660 306 Q641 334 630 367.5 Q619 401 619 442 Q653 493 694 540 Q735 587 770 622 L740 625 Q675 620 606.5 617 Q538 614 468 596 L454 640 Q547 675 646 678.5 Q745 682 848 687 L861 642 Q820 578 766 523.5 Q712 469 681 413 L722 314 L734 310 Q794 327 862 321 Q930 315 995 327 L1010 284 Q943 254 871.5 259.5 Q800 265 740 255 L740 251 Q756 212 759 168 Q762 124 762 74 Q751 30 745.5 -12 Q740 -54 705 -89 L651 -118 ZM106 -91 L79 -71 L79 -42 Q124 2 164 42.5 Q204 83 219 131 Q198 140 169.5 148 Q141 156 118 185 Q106 198 103 215.5 Q100 233 100 251 Q117 301 139 352 Q161 403 161 450 L145 450 L67 440 L40 459 L40 488 Q77 501 110.5 506.5 Q144 512 179 512 Q199 562 201.5 622 Q204 682 221 740 L258 748 L271 709 Q271 659 263 611.5 Q255 564 240 526 L249 523 L410 545 L425 502 L396 491 Q386 406 361 324 Q336 242 306 165 L450 91 Q460 73 475 55.5 Q490 38 483 10 L442 -3 Q424 27 402.5 48 Q381 69 350 80 L274 105 Q254 55 217.5 11 Q181 -33 131 -78 L106 -91 ZM662 -43 L662 -34 L675 -34 Q690 11 698 62 Q706 113 701 172 L686 244 L676 244 Q644 221 603 216 Q562 211 537 199 Q582 149 606.5 80.5 Q631 12 664 -41 L662 -43 ZM248 182 L248 185 Q276 257 300.5 330.5 Q325 404 334 478 L315 478 L226 458 Q216 401 197 343.5 Q178 286 162 229 Q181 211 205 200.5 Q229 190 248 182 Z" /><glyph glyph-name="" unicode="&#x5b9e;" d="M393 847 Q381 819 391 786 Q401 753 438 745 Q475 725 467 708 Q459 684 409 688 Q385 684 350 669.5 Q315 655 295 667 Q270 671 278 725 Q225 741 217 692 Q209 643 246 606 Q262 565 268 507.5 Q274 450 319 430 Q356 430 409 422 Q471 409 504 385 Q491 364 454 364 Q426 364 393 360 Q340 377 299 360 Q262 336 315 299 Q356 282 405 300.5 Q454 319 487 299 Q483 250 438 246 Q393 242 360 221 Q299 197 217 190.5 Q135 184 98 135 Q119 94 160 100 Q201 106 246 124.5 Q291 143 319 151 Q356 156 397 180 Q438 197 471 184 Q430 74 374.5 -30.5 Q319 -135 213 -164 Q205 -123 188 -143 Q180 -160 182 -188.5 Q184 -217 233 -205 Q336 -180 391 -110.5 Q446 -41 481 47 Q516 135 557 213 Q590 250 647 266 Q700 274 741 299 Q770 323 813 341.5 Q856 360 886.5 386.5 Q917 413 909 459 Q884 487 847 475 Q819 467 804.5 444.5 Q790 422 831 413 Q770 377 708.5 346 Q647 315 573 299 Q581 340 583 387 Q585 434 630 434 Q733 467 800.5 530.5 Q868 594 925 671 Q917 708 880 712 Q843 716 796 712 Q749 708 708 712 Q643 708 573.5 712 Q504 716 495 778 Q471 790 446 823 Q430 852 393 847 ZM590 651 L823 643 Q766 594 708 540 Q655 479 581 463 Q606 512 583.5 551 Q561 590 504 557 Q512 516 516 487 Q524 450 471 467 L319 504 Q307 549 313 583.5 Q319 618 381 606 Q422 635 479 639 Q536 643 590 651 ZM467 201 L471 201 Q483 205 477 194.5 Q471 184 467 201 ZM635 135 Q585 111 602 86 Q618 53 657 26.5 Q696 0 712 -25 Q761 -57 798 -104 Q835 -151 880 -188 Q917 -156 897 -123 Q884 -98 853.5 -69.5 Q823 -41 798 -20 Q757 16 718.5 61 Q680 106 635 135 Z" /><glyph glyph-name="" unicode="&#x5c0f;" d="M475 -178 Q422 -154 388.5 -112.5 Q355 -71 321 -26 L321 2 L362 16 L480 -112 Q495 -92 495 -58 Q495 -24 495 14 Q485 86 485 162 Q485 238 479 315 L485 522 L474 706 L514 720 L540 700 L547 320 L540 243 L557 -90 L529 -154 L475 -178 ZM970 84 L944 104 L944 130 L949 151 Q928 224 868 286.5 Q808 349 760 422 L804 437 Q866 385 915.5 321.5 Q965 258 999 191 L1011 98 L970 84 ZM146 101 L103 137 L86 333 L105 359 L135 359 Q153 310 156 258.5 Q159 207 168 165 L309 214 L324 171 Q281 140 236.5 126.5 Q192 113 146 101 Z" /><glyph glyph-name="" unicode="&#x5df1;" d="M442 -144 Q392 -133 338.5 -122 Q285 -111 246 -65 Q229 -43 220.5 -15 Q212 13 212 48 Q229 94 250.5 134.5 Q272 175 277 220 L270 227 L292 256 L319 256 Q333 241 336 223.5 Q339 206 339 188 Q322 143 297.5 102.5 Q273 62 273 16 L309 -40 Q346 -62 389 -70 Q432 -78 475 -83 Q567 -78 661.5 -72.5 Q756 -67 824 -3 Q856 50 872.5 109.5 Q889 169 906 232 L940 240 Q961 219 958.5 198.5 Q956 178 956 155 Q928 94 909 31 Q890 -32 833 -83 Q744 -133 642.5 -136 Q541 -139 442 -144 ZM255 259 L228 279 L228 305 L235 320 Q335 354 433 399.5 Q531 445 611 521 Q627 548 643 571.5 Q659 595 655 620 L595 620 L431 604 L153 604 L140 645 L167 665 L431 665 L678 682 L702 669 Q715 650 715 624.5 Q715 599 715 576 Q687 508 634.5 455 Q582 402 536 384 L557 381 L615 387 L630 344 Q535 319 440.5 311 Q346 303 255 259 Z" /><glyph glyph-name="" unicode="&#x5e08;" d="M205 753 Q192 680 225 612 Q258 544 258 467 Q278 377 270 282 L254 102 Q242 8 254 -78 Q295 -86 307 -45 Q319 -12 319 49 L319 147 Q340 311 319 467 Q307 626 246 737 L205 753 ZM770 737 L430 688 Q422 635 448.5 630.5 Q475 626 514 638.5 Q553 651 577 655 Q647 671 722.5 675.5 Q798 680 868 680 Q897 729 858 737 Q819 745 770 737 ZM688 610 Q680 585 690 540 Q700 495 694 456.5 Q688 418 643 409 Q610 397 583.5 380.5 Q557 364 544 409 Q540 430 534 467 Q528 504 513.5 524 Q499 544 471 524 Q479 291 581 135 Q626 156 622 211 Q618 266 620 311 Q622 356 680 360 Q704 368 706 341.5 Q708 315 704 278.5 Q700 242 704 213 Q708 135 700 53 Q692 -29 680 -86 Q708 -127 732.5 -98.5 Q757 -70 757 -29 Q761 29 761 92.5 Q761 156 782 205 Q868 197 921 270 Q974 336 1015 409 Q1023 487 972 499.5 Q921 512 856 499 Q794 479 757 471 Q761 524 753 571 Q745 618 688 610 ZM8 544 Q25 459 51.5 383 Q78 307 86 213 Q115 176 131 190.5 Q147 205 147 246 Q156 282 135 311 Q115 373 98 446 Q86 512 33 544 L8 544 ZM909 446 Q946 450 944 427.5 Q942 405 921 377 L888 332 Q872 315 839 286.5 Q806 258 783.5 258 Q761 258 770 323 Q753 401 802.5 421.5 Q852 442 909 446 Z" /><glyph glyph-name="" unicode="&#x5e74;" d="M562 -151 Q545 -74 539.5 6 Q534 86 534 156 L508 156 Q421 139 334.5 123 Q248 107 160 66 L146 109 Q165 134 190 148 Q215 162 237 179 Q259 179 272 192 Q285 205 301 215 Q315 236 318 259.5 Q321 283 321 307 L292 351 L228 330 L201 350 L201 379 Q277 413 361.5 424.5 Q446 436 518 445 L518 516 L513 549 L497 549 L348 515 Q329 528 312 539.5 Q295 551 289 570 L289 594 Q294 644 308 685.5 Q322 727 339 773 L372 780 Q388 765 388 750 Q388 735 388 723 Q366 690 360.5 652 Q355 614 351 582 L377 577 Q451 593 530 618 Q609 643 697 660 L711 618 Q674 593 637.5 587 Q601 581 573 573 L573 522 L579 457 L606 457 L807 479 L820 436 Q760 412 699.5 409.5 Q639 407 584 397 L584 348 L595 228 L611 228 L889 262 L902 218 Q825 195 745.5 186.5 Q666 178 596 168 L596 47 L606 -137 L562 -151 ZM534 216 L534 233 L523 385 L502 385 L360 364 L360 360 Q376 339 382 311 Q388 283 383 248 L358 194 L371 190 L534 216 Z" /><glyph glyph-name="" unicode="&#x5f88;" d="M161 -211 L141 -177 L163 -72 L163 161 L152 244 L137 244 L100 231 L85 272 Q126 340 158.5 408 Q191 476 230 544 L266 552 L279 511 L171 305 L213 269 L224 162 L224 -73 L195 -204 L161 -211 ZM971 -161 L955 -154 L945 -126 L930 -115 Q853 -50 769 4 Q685 58 595 103 L582 149 L622 163 L660 152 Q750 167 817.5 238 Q885 309 970 363 L983 319 Q932 262 877 209.5 Q822 157 761 123 L718 106 Q773 75 838.5 31 Q904 -13 965 -64 L971 -79 L987 -84 L1012 -147 L971 -161 ZM417 -156 L386 -118 Q430 -27 433 73 Q436 173 441 271 Q436 341 428 409.5 Q420 478 413 551 L433 577 L460 577 Q482 563 476.5 546.5 Q471 530 476 525 Q522 556 583 553.5 Q644 551 705 551 L775 527 L781 487 L702 398 L630 344 L633 343 L784 360 L799 311 Q722 287 645 284 Q568 281 502 256 Q497 178 494 93 Q491 8 476 -67 L478 -67 Q504 -46 534.5 -26 Q565 -6 604 0 L618 -42 Q571 -78 524 -108.5 Q477 -139 417 -156 ZM509 330 Q558 374 612.5 409.5 Q667 445 698 489 L531 489 L486 449 L501 326 L509 330 ZM844 335 L818 355 L818 382 Q839 420 839 466 Q839 512 845 555 L835 627 Q801 642 755 639.5 Q709 637 666 637 Q616 630 567.5 630 Q519 630 474 608 L446 628 L446 657 Q533 698 632 698 Q731 698 826 698 L883 663 Q901 622 904 583.5 Q907 545 907 500 L884 348 L844 335 ZM94 494 L80 535 Q126 586 161 640.5 Q196 695 231 752 L260 752 L274 713 Q245 656 209.5 601 Q174 546 122 494 L94 494 Z" /><glyph glyph-name="" unicode="&#x5feb;" d="M217 -166 Q195 -153 195 -135.5 Q195 -118 190 -107 L190 140 L195 334 L196 333 Q179 317 166 290.5 Q153 264 141 233 L108 227 L93 234 L81 304 L92 472 L85 497 L105 523 L135 523 Q154 486 154 447 Q154 408 157 383 L196 421 L201 642 L178 734 L220 748 Q257 699 259.5 646.5 Q262 594 262 538 L257 470 L257 470 Q276 478 301 492.5 Q326 507 363 501 L398 477 Q409 454 417.5 428.5 Q426 403 420 370 L380 357 Q359 378 359 400 Q359 422 350 435 L323 440 L257 394 L257 143 L252 138 L252 -100 L257 -154 L217 -166 ZM965 -124 Q880 -56 806.5 18 Q733 92 654 165 L653 171 Q638 127 616.5 66.5 Q595 6 532 -45 Q499 -62 468 -76 Q437 -90 394 -90 L379 -48 Q423 -29 466 -13 Q509 3 535 45 Q561 93 577.5 144.5 Q594 196 603 244 L601 244 L414 166 L387 186 L387 212 L393 226 Q445 260 502.5 276.5 Q560 293 611 309 Q621 370 627 438 Q633 506 637 565 L633 565 L481 537 L468 580 Q511 605 555 613 Q599 621 638 626 Q638 653 638 686.5 Q638 720 656 752 L692 758 L704 719 L699 626 Q737 626 781.5 626 Q826 626 862 598 Q873 574 882 554 Q891 534 884 504 Q867 460 845.5 421 Q824 382 784 348 L770 338 L770 338 L970 371 L984 328 Q902 298 820 287 Q738 276 666 261 L661 197 L662 196 L694 208 Q774 140 847.5 66 Q921 -8 1005 -75 L1005 -110 L965 -124 ZM678 347 Q717 374 754 406.5 Q791 439 813 481 L822 542 L800 565 L698 565 L678 344 L676 345 L678 347 Z" /><glyph glyph-name="" unicode="&#x606f;" d="M594 -189 Q554 -171 515.5 -151.5 Q477 -132 438 -105 Q404 -60 376 -7.5 Q348 45 337 104 L357 130 L386 130 Q404 77 425.5 28.5 Q447 -20 484 -63 Q516 -84 550.5 -105.5 Q585 -127 626 -127 Q664 -111 710 -108 Q756 -105 785 -75 L790 -40 L787 -30 L780 -30 L736 -35 Q705 -24 685.5 1.5 Q666 27 649 56 L631 128 L674 143 Q693 110 706 80.5 Q719 51 745 31 L767 27 L847 144 Q859 157 876.5 160 Q894 163 912 163 Q954 140 976 101 Q998 62 1032 28 L1032 1 L998 -20 Q961 10 942 45.5 Q923 81 891 99 L821 0 L846 -15 L852 -74 L812 -138 Q760 -160 705 -168.5 Q650 -177 594 -189 ZM146 -135 L113 -96 Q130 -38 144 13.5 Q158 65 169 124 L204 130 Q219 115 219 97.5 Q219 80 219 63 L180 -84 L187 -114 L146 -135 ZM333 167 Q315 237 307 305.5 Q299 374 294 446 L310 647 L298 681 Q317 718 350 740 Q383 762 412 785 L440 785 L454 744 L366 678 L366 653 L372 577 L355 446 L383 193 L363 167 L333 167 ZM445 182 L412 221 Q431 259 459 281.5 Q487 304 502 315 L447 319 L410 313 L396 356 Q434 381 476 381 Q518 381 558 381 L605 363 L613 329 L538 264 Q562 261 609 263.5 Q656 266 689 252 Q714 333 716.5 427.5 Q719 522 719 617 Q691 641 648.5 635.5 Q606 630 562 636 Q526 626 490.5 609.5 Q455 593 411 580 L396 622 Q466 675 541 691.5 Q616 708 706 698 L763 663 Q786 605 783.5 544.5 Q781 484 781 424 Q781 369 767 313.5 Q753 258 735 205 L703 199 L687 210 Q633 194 567.5 199.5 Q502 205 445 182 ZM389 416 L375 458 Q412 495 460 495 Q508 495 557 495 L605 484 L613 442 L563 429 L448 434 L389 416 Z" /><glyph glyph-name="" unicode="&#x60f3;" d="M672 -210 Q587 -215 529 -165 Q471 -115 415 -60 Q377 -10 349.5 42 Q322 94 315 158 L335 184 L366 184 Q376 115 408.5 56 Q441 -3 495 -52 Q538 -95 583.5 -124 Q629 -153 687 -148 Q725 -143 767.5 -143 Q810 -143 835 -113 Q856 -87 856 -52.5 Q856 -18 856 14 L850 46 L891 60 Q917 33 917 -1 Q917 -35 917 -69 L861 -175 Q821 -198 771 -201.5 Q721 -205 672 -210 ZM97 -151 L64 -118 L131 85 L178 99 L192 57 Q158 12 147.5 -36.5 Q137 -85 125 -137 L97 -151 ZM753 -2 Q717 15 686 37 Q655 59 638 101 L638 128 L679 143 Q698 111 721.5 90 Q745 69 768 60 Q798 84 819.5 120 Q841 156 883 179 L923 179 Q953 174 975 151 Q997 128 1021 106 L1039 49 L997 35 L919 118 L897 118 L816 15 L753 -2 ZM270 183 Q256 198 253 212.5 Q250 227 250 244 L256 368 L247 368 L123 308 L90 348 Q131 390 158.5 439.5 Q186 489 238 518 L256 518 L256 612 L254 614 L64 571 L27 595 L27 622 Q33 636 45.5 642.5 Q58 649 78 649 L94 633 L250 669 L250 694 L244 701 L263 751 L299 758 L312 707 L307 701 L310 687 L315 687 Q348 698 383.5 703 Q419 708 457 715 L471 661 Q433 636 391.5 639 Q350 642 322 628 L317 459 L318 458 L402 480 L417 438 Q390 418 364.5 409.5 Q339 401 317 397 L311 234 L318 205 Q309 189 296.5 186 Q284 183 270 183 ZM886 227 L866 267 L872 274 L872 593 L841 680 L753 680 Q710 680 669.5 669 Q629 658 579 646 L566 688 Q625 736 700 738.5 Q775 741 853 741 L889 717 L933 595 L933 248 Q926 233 913.5 230 Q901 227 886 227 ZM609 275 L576 313 L531 296 Q495 373 492.5 455.5 Q490 538 490 623 L527 659 L555 659 L569 617 Q556 611 554 599 Q552 587 552 583 L555 583 Q593 610 640.5 607.5 Q688 605 738 605 L780 592 L787 557 L743 538 L610 543 L604 528 L552 517 L552 479 Q552 436 560 395.5 Q568 355 584 327 Q601 352 626 385 Q651 418 670 430 L633 434 L580 410 L566 453 Q597 490 642.5 492.5 Q688 495 732 495 L775 477 L781 444 L691 363 Q721 359 765 359 Q809 359 851 341 L858 306 L825 286 Q790 298 755.5 298 Q721 298 683 298 L609 275 ZM256 428 L256 460 L257 459 L226 420 L222 420 L256 428 Z" /><glyph glyph-name="" unicode="&#x6536;" d="M331 -184 L298 -145 L310 -77 L305 42 L310 221 L305 221 Q236 221 179 196.5 Q122 172 59 144 L32 165 L32 193 L62 211 Q108 242 108 292 Q108 342 108 397 L102 539 L120 583 L157 589 L170 545 L164 402 L170 270 L161 252 L163 251 Q194 272 235.5 274.5 Q277 277 310 287 L310 505 L299 720 L318 747 L348 747 Q372 687 369 626.5 Q366 566 372 506 L372 47 L366 -61 L372 -106 L360 -170 L331 -184 ZM441 -140 L413 -120 L413 -90 Q449 -73 473 -54 Q497 -35 524 -8 Q562 41 597.5 89.5 Q633 138 658 188 Q628 223 601 264 Q574 305 528 339 L528 369 L568 381 L627 336 L692 250 Q720 312 758.5 383 Q797 454 830 516 L830 516 Q759 494 677.5 496.5 Q596 499 533 468 L488 401 L460 401 L440 435 Q485 498 496 576 Q507 654 519 735 L553 742 Q573 715 570.5 689.5 Q568 664 568 636 L553 544 L556 544 Q648 556 741 561.5 Q834 567 921 602 L934 560 Q873 470 824 380 Q775 290 733 202 Q796 149 834.5 83.5 Q873 18 931 -30 L1004 -69 L1011 -105 L966 -117 Q874 -78 819.5 -1 Q765 76 705 141 Q660 71 605 -5.5 Q550 -82 466 -133 L441 -140 Z" /><glyph glyph-name="" unicode="&#x65b0;" d="M825 -184 Q807 -123 804 -62.5 Q801 -2 796 58 L796 288 Q796 313 779.5 332 Q763 351 763 375 L754 375 L644 348 Q633 275 622.5 198.5 Q612 122 577 53 L545 47 L529 54 L523 92 Q561 186 574.5 280.5 Q588 375 588 478 L576 542 Q651 582 708.5 639.5 Q766 697 849 721 L864 678 Q800 638 746 589 Q692 540 640 504 Q650 486 650 458 Q650 430 654 410 Q736 430 823 443.5 Q910 457 1003 469 L1017 426 Q968 408 918.5 399.5 Q869 391 833 382 Q841 366 843.5 338.5 Q846 311 858 289 L858 58 L868 -170 L825 -184 ZM332 -133 L317 -126 L293 -72 Q310 -49 310 -22.5 Q310 4 310 28 L310 29 Q276 4 237.5 -23.5 Q199 -51 150 -63 L129 -28 L272 137 L265 166 L300 178 L304 193 L304 193 Q265 173 218 151 Q171 129 116 117 L101 160 L300 254 L304 274 L297 282 L318 310 L348 310 L364 272 L376 272 L465 299 L491 279 L491 250 L366 212 L360 137 L367 131 L479 176 L492 132 L371 66 L366 46 L372 -121 L332 -133 ZM170 251 L157 293 L164 308 Q220 337 269 374.5 Q318 412 364 440 L365 439 Q335 424 304.5 410 Q274 396 233 391 Q210 402 189.5 414 Q169 426 163 450 L157 485 Q169 504 181.5 522 Q194 540 223 533 L236 495 L222 470 L256 453 Q314 473 369 503.5 Q424 534 496 534 L508 494 L405 394 L407 393 Q417 403 437.5 405.5 Q458 408 479 408 L493 366 Q411 331 329.5 312 Q248 293 170 251 ZM377 444 L377 444 L381 447 L380 448 L377 444 ZM376 457 L387 448 L397 457 L376 457 ZM121 531 L107 575 Q205 610 301 621 Q397 632 497 643 L523 631 L531 594 Q427 571 325.5 560 Q224 549 121 531 ZM307 624 L293 664 L313 715 L283 725 L276 762 L322 774 L366 756 L377 696 L342 631 L307 624 Z" /><glyph glyph-name="" unicode="&#x65c5;" d="M566 -156 L539 -136 L539 -104 Q556 -60 556 -9 Q556 42 556 95 Q540 121 524.5 144.5 Q509 168 480 180 L468 218 Q519 280 556.5 345 Q594 410 611 484 L648 491 L661 452 Q644 384 613.5 326 Q583 268 543 218 Q589 176 608.5 115 Q628 54 624 3 L706 119 L735 119 L749 79 Q709 22 673 -35.5 Q637 -93 587 -149 L566 -156 ZM986 -101 Q896 -23 811 59 Q726 141 649 236 L649 264 Q718 288 783 315 Q848 342 901 395 L931 425 L959 425 L973 379 Q921 315 857.5 284.5 Q794 254 736 231 Q796 156 872 85 Q948 14 1027 -59 L1027 -88 L986 -101 ZM262 -74 Q236 -67 222 -47 Q208 -27 196 -5 Q184 19 181.5 46.5 Q179 74 177 85 L96 -50 L62 -58 L42 -18 Q87 50 125 118.5 Q163 187 195 256 L190 286 L212 297 L234 429 L268 436 Q290 422 287.5 401 Q285 380 285 364 L279 321 L288 321 L373 327 L416 279 L416 95 Q398 50 362 13.5 Q326 -23 292 -61 L262 -74 ZM268 3 Q343 51 351 120 Q359 189 354 265 L296 265 L255 245 L198 125 L198 125 L227 131 Q241 92 241 55 Q241 18 266 1 L268 3 ZM182 107 L185 104 L189 107 L185 111 L182 107 ZM74 423 L48 443 L48 472 L202 522 Q217 551 220 589 Q223 627 223 668 L211 698 L231 725 L258 725 Q290 694 287.5 657 Q285 620 285 581 L264 523 L469 511 L476 476 L444 456 L197 456 L74 423 ZM507 483 Q488 490 475.5 501.5 Q463 513 457 532 L457 562 Q479 606 490.5 655 Q502 704 519 751 L552 758 Q568 744 570.5 729 Q573 714 573 695 Q551 657 540.5 616.5 Q530 576 521 544 L534 544 Q610 561 689.5 574.5 Q769 588 856 600 L869 545 Q776 527 686 513.5 Q596 500 507 483 Z" /><glyph glyph-name="" unicode="&#x65e5;" d="M278 -47 L262 -39 Q228 52 228 150.5 Q228 249 212 342 Q223 391 217.5 440.5 Q212 490 236 539 L271 545 L290 495 Q273 462 279 421 Q285 380 273 341 Q290 250 290 154.5 Q290 59 319 -33 L278 -47 ZM772 -25 L757 -4 L735 -15 Q706 19 666.5 19 Q627 19 590 19 L435 -9 L402 30 Q449 107 517 158.5 Q585 210 635 266 Q598 303 542 314 Q486 325 429 320 L390 281 L362 281 L342 309 L367 352 Q402 381 446.5 381 Q491 381 536 381 Q580 370 619.5 353.5 Q659 337 694 295 L699 242 Q659 185 602 149.5 Q545 114 507 67 L519 65 Q556 76 603 78.5 Q650 81 695 81 L761 40 Q775 81 775 132.5 Q775 184 775 236 L769 241 L769 532 L753 583 L735 593 L492 593 L427 569 L414 611 Q427 631 450 640 Q473 649 490 654 L738 654 L802 625 L830 534 L830 244 L836 96 Q830 68 825 40.5 Q820 13 807 -18 L772 -25 Z" /><glyph glyph-name="" unicode="&#x662f;" d="M83 -194 L69 -151 Q159 -78 204.5 11 Q250 100 267 212 L301 219 Q323 205 320 184 Q317 163 317 146 L286 52 Q324 27 370.5 2.5 Q417 -22 457 -35 L457 -7 L452 10 L463 131 L442 283 L409 289 Q339 277 265 266.5 Q191 256 116 244 L100 288 Q277 327 452 355 Q627 383 807 405 L820 356 Q738 332 656 323.5 Q574 315 504 296 Q514 268 514 227 Q514 186 518 154 L528 154 Q577 170 626.5 180.5 Q676 191 735 186 L750 143 Q689 125 631.5 117 Q574 109 524 94 L514 0 L523 -50 Q568 -60 614.5 -71 Q661 -82 714 -82 Q779 -76 844 -68 Q909 -60 975 -30 L990 -85 Q913 -121 836 -129 Q759 -137 676 -143 Q566 -127 456.5 -96.5 Q347 -66 259 -15 Q240 -58 206.5 -99.5 Q173 -141 128 -181 L83 -194 ZM318 406 L307 431 L280 437 Q250 483 247.5 538.5 Q245 594 239 649 L257 719 L290 727 Q312 712 309 691.5 Q306 671 306 653 L301 647 Q311 606 308.5 555 Q306 504 333 477 L490 585 L459 588 L348 555 L321 575 L321 603 Q380 638 449 646.5 Q518 655 592 650 L617 630 L617 603 L485 506 L508 503 L635 508 L648 492 Q665 531 673.5 582 Q682 633 676 691 Q662 708 639 708 Q616 708 595 708 Q530 708 473 695 Q416 682 359 665 L332 685 L332 713 Q408 748 490.5 759 Q573 770 657 770 L719 735 Q743 700 740 655.5 Q737 611 737 566 L686 437 L652 429 L635 457 Q562 446 478 443.5 Q394 441 318 406 Z" /><glyph glyph-name="" unicode="&#x665a;" d="M585 856 Q565 786 495 806 Q471 761 434 712 Q397 663 413 606 Q454 618 487 643 L557 700 Q590 725 635 716 Q606 647 544 594 Q491 540 413 540 Q409 577 382.5 589.5 Q356 602 337.5 589.5 Q319 577 344 532 Q356 463 382.5 391 Q409 319 397 250 Q377 209 407.5 194.5 Q438 180 471 176 Q426 106 383 34.5 Q340 -37 278 -86 Q262 -65 254 -78 Q246 -98 250 -119 Q254 -147 274 -156 Q352 -131 395 -55.5 Q438 20 483 90 Q512 131 526 112.5 Q540 94 556.5 55 Q573 16 590 0 Q622 -53 688 -82 Q749 -119 811 -115 Q880 -115 931.5 -61.5 Q983 -8 1013.5 71.5 Q1044 151 974 213 Q958 237 946 278 Q942 315 931.5 344 Q921 373 888 373 Q872 311 897 246 Q929 184 946 131 Q966 70 909 25 Q876 -37 798 -45 Q725 -61 675 -8 Q635 41 610 98.5 Q585 156 569 213 Q590 274 645 313 Q700 352 721 413 Q716 434 732.5 473 Q749 512 743 538.5 Q737 565 671 553 Q630 544 601.5 546.5 Q573 549 614 581 Q643 626 680 675 Q725 725 700 778 Q659 782 618 778 Q577 774 557 766 Q561 790 575.5 812.5 Q590 835 585 856 ZM8 671 Q-20 630 -4 581 Q12 524 4 479 Q37 467 37 442 Q41 409 35 372.5 Q29 336 41 315 Q29 242 24.5 166 Q20 90 0 20 Q-20 -33 0 -65 Q29 -98 53 -41 Q94 -16 120.5 25 Q147 66 176 94 Q176 61 202.5 43 Q229 25 246 66 L254 184 Q254 237 299 278 Q319 323 295 323 Q258 323 246 287 Q225 323 229 372.5 Q233 422 221 463 Q225 536 188 590 Q160 639 98 590 Q66 569 53 598 Q49 622 45 648.5 Q41 675 8 671 ZM123 536 Q160 536 166 499.5 Q172 463 166 418 Q160 373 168 336 Q156 336 139 368 Q131 401 98 397 L90 479 Q82 520 123 536 ZM426 495 L430 495 Q442 504 436 489.5 Q430 475 426 495 ZM643 495 L659 495 Q688 504 675 487 Q671 467 657 460.5 Q643 454 643 495 ZM524 467 Q557 471 561 440 Q565 409 550.5 376.5 Q536 344 516 352 Q483 323 464.5 350 Q446 377 450 415.5 Q454 454 495 459 L524 467 ZM164 319 L172 319 Q184 315 176 295 Q160 282 164 319 ZM94 287 Q119 287 123 258 Q127 229 160 229 Q164 168 131 143 Q102 111 78 90 Q90 139 90 190.5 Q90 242 94 287 Z" /><glyph glyph-name="" unicode="&#x6709;" d="M366 -163 L347 -125 Q375 -13 393.5 101.5 Q412 216 418 335 L412 397 L432 423 L459 423 Q479 397 474 369 Q469 341 480 327 Q498 340 526 346 Q554 352 583 352 L691 311 L702 438 L687 438 Q644 416 588.5 416 Q533 416 478 416 L441 434 L433 470 L472 483 L614 477 Q651 488 687.5 496.5 Q724 505 767 505 L780 460 Q752 415 754.5 358.5 Q757 302 757 248 Q774 172 793.5 98 Q813 24 813 -59 Q806 -82 795 -105 Q784 -128 760 -146 L712 -158 L625 -89 L625 -59 L666 -46 L725 -94 Q745 -77 748 -48.5 Q751 -20 751 11 L721 108 Q677 88 616 91 Q555 94 498 94 L473 114 L473 141 L621 279 Q608 285 584 288 Q560 291 535 291 L483 256 L483 257 Q463 165 449.5 58.5 Q436 -48 402 -157 L366 -163 ZM115 -11 L101 29 Q179 169 252.5 305 Q326 441 397 563 L370 563 L150 530 L123 550 L123 580 Q205 598 281 608.5 Q357 619 436 635 Q457 670 468 714 Q479 758 514 794 L543 794 L556 754 Q534 725 526 695 Q518 665 510 647 L560 647 Q608 657 657.5 673.5 Q707 690 762 702 L775 659 Q699 618 624.5 601.5 Q550 585 472 580 Q396 435 314.5 287.5 Q233 140 149 -3 L115 -11 ZM718 152 L718 159 L694 268 L591 160 L716 150 L718 152 ZM407 556 L394 569 L407 584 L423 569 L407 556 Z" /><glyph glyph-name="" unicode="&#x6734;" d="M285 -85 L266 -46 L272 139 L269 139 Q238 119 206 95 Q174 71 152 32 L130 24 L102 44 L102 72 Q164 149 207 238.5 Q250 328 271 412 L263 412 L113 384 L86 404 L86 435 Q135 446 184 454 Q233 462 272 472 L272 549 L255 706 L298 721 Q322 666 324.5 605.5 Q327 545 333 490 L337 490 L451 519 L466 470 Q428 451 395 445.5 Q362 440 334 431 L334 241 L334 241 Q362 255 392.5 277 Q423 299 468 306 L482 263 L334 170 L334 -53 L320 -78 L285 -85 ZM672 -80 L649 -13 L659 26 L649 129 L649 429 L638 522 L643 663 L624 712 L667 725 Q710 683 707 630 Q704 577 704 528 L699 479 L714 394 L748 404 Q804 375 862 361 Q920 347 972 307 L978 272 L921 253 L895 273 L890 288 L711 357 L710 356 L710 129 L721 -24 L709 -73 L672 -80 ZM247 195 L272 205 L272 247 L274 245 L247 191 L245 193 L247 195 Z" /><glyph glyph-name="" unicode="&#x67e5;" d="M442 847 Q426 819 438 790 Q450 761 454 737 Q454 725 405 731 Q356 737 315 737 Q274 737 274 692 Q307 667 368 675 Q438 680 483 667 Q475 626 448.5 610 Q422 594 397 569 Q385 544 385 520 Q385 508 356 479 Q295 401 227.5 317 Q160 233 74 168 Q37 176 37 145.5 Q37 115 66 94 Q86 78 115 111 L270 274 L377 -25 Q385 -78 426 -78 Q467 -78 516 -59.5 Q565 -41 598 -33 Q626 -8 655 -20 Q680 -25 700 -53 Q757 -12 792 51.5 Q827 115 868 180 Q909 229 894.5 270 Q880 311 833 331.5 Q786 352 737 323 Q667 315 612 290.5 Q557 266 499 258 Q532 328 532 411.5 Q532 495 553 569 Q643 544 710.5 499 Q778 454 864 413 Q876 385 913 397 Q946 401 966 413 Q978 434 946 450 Q839 487 749 542.5 Q659 598 561 639 Q536 692 590 696 Q630 712 680 721 Q721 733 708 786 Q671 790 628 771.5 Q585 753 544.5 753 Q504 753 504 815 Q491 823 481 835 Q471 847 442 847 ZM459 499 Q475 487 471 434 Q454 397 467 356 Q446 328 446 289 Q446 250 483 237 L401 197 Q360 184 348 242 Q344 278 332 291 Q311 319 299 323 Q344 364 383 411.5 Q422 459 459 499 ZM782 274 Q827 274 827 247.5 Q827 221 808.5 186 Q790 151 782 123 Q745 98 737 70 Q712 45 659 57 L561 20 Q504 0 450 12 Q446 61 493 63.5 Q540 66 573 78 Q598 86 636.5 98.5 Q675 111 696 131 Q708 156 680 176 Q614 160 553 139 Q487 111 422 123 Q471 180 536 197 Q602 225 671 246 L782 274 ZM872 -106 Q761 -119 643 -127 Q516 -127 405 -143 Q381 -143 348 -156 Q315 -156 301 -174 Q287 -192 315 -217 L876 -168 Q880 -156 892 -127 Q897 -102 872 -106 Z" /><glyph glyph-name="" unicode="&#x684c;" d="M430 835 Q413 802 431.5 777.5 Q450 753 474.5 730.5 Q499 708 499 675 Q524 630 528 587 Q532 544 479 540 Q450 532 419.5 515.5 Q389 499 366.5 503.5 Q344 508 340 553 Q315 606 280.5 591.5 Q246 577 276.5 520 Q307 463 335.5 399.5 Q364 336 377 278 Q340 278 336 255.5 Q332 233 348 221 Q364 201 397 225 Q422 213 438 190.5 Q454 168 475 205 Q459 246 481.5 233.5 Q504 221 518 194.5 Q532 168 479 184 Q389 147 276.5 139 Q164 131 70 102 Q41 57 67.5 49 Q94 41 137 47 Q180 53 205 66 Q250 66 295 78 Q340 90 360 74 Q356 33 358 -20.5 Q360 -74 376.5 -100.5 Q393 -127 434 -102 L434 4 Q434 57 446 106 Q483 119 522 121 Q561 123 544 61 Q544 20 554.5 -18.5 Q565 -57 528 -53 Q512 -86 534.5 -121 Q557 -156 581 -160 Q614 -164 622 -111 Q626 -37 616 30.5 Q606 98 626 156 Q692 164 749 184 Q806 197 868 192 Q897 197 921 225 Q946 246 942 270 Q942 287 888 287 Q831 258 751 235.5 Q671 213 606 221 Q598 254 573 274 Q557 287 610 291 Q700 332 761 405 Q831 475 876 557 Q852 590 780 585.5 Q708 581 663 577 Q610 557 585 594 Q569 626 581 663 Q602 696 655 684 Q688 692 722.5 700 Q757 708 737 753 Q692 770 647 757 Q602 737 565 735 Q528 733 516 786 Q499 806 483 824.5 Q467 843 430 835 ZM700 524 Q737 536 757 532 Q782 520 753 495 Q733 463 704 487 Q680 504 635 487 Q585 454 519.5 436 Q454 418 397 413 Q393 450 440 460.5 Q487 471 520 491 L700 524 ZM651 418 Q680 413 645 388.5 Q610 364 587.5 358 Q565 352 526 335.5 Q487 319 460.5 317 Q434 315 446 352 Q561 373 651 418 ZM782 115 Q770 66 778 16.5 Q786 -33 761 -78 Q782 -127 812.5 -102.5 Q843 -78 843 -29 Q852 16 841.5 63.5 Q831 111 782 115 Z" /><glyph glyph-name="" unicode="&#x68a6;" d="M244 -210 L217 -190 L217 -161 Q297 -133 362 -76 Q427 -19 486 36 Q460 53 425 80 Q390 107 349 119 L342 154 Q358 168 372.5 168 Q387 168 400 168 L533 78 L688 253 L687 253 Q575 216 452.5 199.5 Q330 183 223 105 L195 126 L195 155 Q280 205 345 275.5 Q410 346 472 420 L501 420 L515 379 L404 253 L415 250 Q506 261 588 285.5 Q670 310 766 322 Q781 307 781 291.5 Q781 276 781 264 Q676 136 558 18.5 Q440 -99 303 -193 L244 -210 ZM293 341 Q266 367 271.5 398 Q277 429 269 449 Q242 441 209.5 424.5 Q177 408 141 390 L114 410 L114 437 L244 589 L213 593 L118 581 L92 601 L92 631 Q140 643 187 648.5 Q234 654 272 658 L272 675 L266 767 L306 781 Q334 760 328.5 729 Q323 698 332 680 L344 676 L446 693 L459 651 Q428 625 394.5 625 Q361 625 333 616 L328 528 L331 528 L397 558 L411 514 L338 469 L327 348 L293 341 ZM774 347 L758 354 L752 391 L757 448 Q740 462 711 462 Q682 462 658 462 L619 418 L591 418 L571 452 L731 650 L720 653 L539 614 L512 633 L512 664 Q577 681 637 692 Q697 703 752 718 L752 755 Q743 763 733.5 772.5 Q724 782 732 805 L782 818 Q802 798 808 772.5 Q814 747 814 725 L861 725 L899 732 L913 690 Q892 670 869 666.5 Q846 663 825 663 L825 490 Q863 485 905 468 Q947 451 982 417 L989 383 L954 362 Q919 392 887 410.5 Q855 429 818 429 L808 353 L774 347 ZM247 500 L251 497 L254 500 L251 504 L247 500 ZM266 512 L266 520 L267 518 L263 512 L266 512 ZM763 513 L763 591 L765 590 L715 521 L763 513 ZM739 659 L742 656 L745 659 L742 663 L739 659 Z" /><glyph glyph-name="" unicode="&#x6b22;" d="M520 786 Q495 770 495 735 Q495 700 528 692 Q532 622 524 546.5 Q516 471 532 422 Q569 426 590 430 Q618 434 602 385 Q590 328 571.5 278.5 Q553 229 495 209 Q536 184 505.5 147.5 Q475 111 450 78 Q434 45 405 20 Q385 0 368 49 Q319 61 303 112.5 Q287 164 274 205 Q295 266 323 332 Q360 397 336 467 Q323 491 296.5 481 Q270 471 243.5 465 Q217 459 205 487 Q131 499 100.5 462.5 Q70 426 135 405 Q160 405 203 409 Q246 413 272.5 405 Q299 397 274 352 L254 295 Q242 266 223.5 256 Q205 246 184 282 Q168 311 125 335.5 Q82 360 45 360 Q8 360 12 299 Q29 274 43 276 Q57 278 75.5 284.5 Q94 291 115 274 Q160 242 182.5 201 Q205 160 168 111 Q160 94 141.5 69.5 Q123 45 108.5 35 Q94 25 86 66 Q53 70 51 22.5 Q49 -25 66 -61 Q86 -90 119 -53 Q160 -16 180 41 Q209 90 246 119 Q270 66 307 6.5 Q344 -53 389 -74 Q454 -29 495 41 Q536 102 590 156 Q663 115 712 57.5 Q761 0 823 -57 Q847 -78 878 -112.5 Q909 -147 937 -168 Q970 -180 1015 -160 L1015 -131 Q1015 -123 987 -111 Q954 -61 898.5 -30.5 Q843 0 806 45 Q766 102 710.5 143 Q655 184 614 242 Q626 274 640.5 274 Q655 274 675 254 Q770 270 808.5 346 Q847 422 884 495 Q897 532 903 577 Q909 622 890.5 648.5 Q872 675 811 655 Q770 639 733 610 Q696 581 655 585 Q630 581 618 560.5 Q606 540 598 536 Q590 532 590 577 L590 716 Q585 778 520 786 ZM806 594 Q839 594 837 571.5 Q835 549 820.5 520 Q806 491 802 471 Q778 373 696 319 Q655 344 673.5 407.5 Q692 471 692 524 L806 594 Z" /><glyph glyph-name="" unicode="&#x6b65;" d="M524 831 Q516 782 532 741 L569 643 Q581 590 573 524 Q590 504 573.5 495.5 Q557 487 534.5 493 Q512 499 512 520 Q450 606 422 708 Q364 708 364 673.5 Q364 639 388.5 602 Q413 565 434 549 Q454 516 459 491 Q471 459 405 463 Q332 442 250 425.5 Q168 409 98 381 Q123 344 164 352 Q209 352 256 366.5 Q303 381 336 389 Q413 401 491 423.5 Q569 446 643 450 Q577 397 505.5 346 Q434 295 385 229 Q434 213 475 241.5 Q516 270 544 307 Q581 340 622 352 Q647 295 643 225 Q635 147 622 90 Q655 70 635 53 Q622 33 590 16 Q561 -8 553 -29 Q504 -78 454.5 -129 Q405 -180 352 -213 Q348 -168 323 -188 Q307 -209 307 -246 Q299 -287 336 -291 Q442 -237 526 -137 Q610 -37 700 49 Q770 123 839.5 211 Q909 299 929 413 Q901 442 868 423.5 Q835 405 811 373 Q794 340 798 319 Q839 336 835 323.5 Q831 311 806 282 Q790 254 778 239.5 Q766 225 751.5 200.5 Q737 176 721 176 Q712 168 716 221 Q712 266 700 313 Q688 360 692 401 Q696 442 749 459 Q770 479 813 489 Q856 499 890.5 511.5 Q925 524 929 557 Q880 581 833 565 Q786 549 739 530.5 Q692 512 647 520 Q626 553 635 594 Q651 630 700 622 Q721 635 766 643 Q819 647 839 667 Q868 680 823 708 Q770 708 718.5 691.5 Q667 675 626 680 Q614 729 597.5 778 Q581 827 524 831 ZM835 340 L839 340 Q852 352 845.5 337.5 Q839 323 835 340 Z" /><glyph glyph-name="" unicode="&#x6c38;" d="M484 -133 L403 -76 L403 -47 L443 -33 L472 -52 Q485 -17 490 29 Q495 75 490 123 L474 425 L478 434 L478 433 L250 385 L201 403 L195 439 L246 453 L267 446 L539 508 L552 455 Q535 433 535 404 Q535 375 535 348 L546 242 Q587 255 630 284.5 Q673 314 710 352 L810 469 L840 469 L852 429 Q807 371 760 316 Q713 261 659 232 Q697 194 748 164 Q799 134 850 100 L857 84 L932 30 Q943 13 960.5 -4.5 Q978 -22 971 -50 L931 -64 L890 -12 L815 42 L750 97 Q701 124 652.5 159.5 Q604 195 551 199 L547 129 L552 14 L523 -127 L484 -133 ZM148 -84 L134 -43 Q203 9 263 71 Q323 133 361 197 L354 199 Q307 183 261 169.5 Q215 156 160 132 L145 176 Q210 216 276.5 238.5 Q343 261 424 261 L437 210 Q392 125 326 48.5 Q260 -28 176 -84 L148 -84 ZM503 641 L492 680 Q473 680 450 691.5 Q427 703 409 721 L396 752 L416 780 L446 780 L457 755 Q488 735 523 727 Q558 719 600 707 L606 673 Q581 653 555.5 650 Q530 647 503 641 Z" /><glyph glyph-name="" unicode="&#x6cea;" d="M181 -112 Q160 -106 145.5 -91 Q131 -76 125 -57 L125 -2 L141 194 Q130 241 103 285 Q76 329 52 382 L73 408 L102 408 Q142 340 175 273.5 Q208 207 203 123 L187 -45 L188 -45 Q241 -3 273.5 53.5 Q306 110 333 173 L369 180 L383 140 Q355 77 324 19 Q293 -39 238 -83 L181 -112 ZM506 -64 L472 -23 L512 23 L512 74 L479 381 Q485 440 485 503.5 Q485 567 508 625 L545 634 L557 594 L547 452 L616 446 L771 458 L797 438 L797 410 Q743 385 679.5 388 Q616 391 561 385 L544 390 L541 380 L562 242 Q593 256 637 264 Q681 272 727 266 L796 243 L803 209 Q758 147 700.5 97.5 Q643 48 599 14 L807 -1 L851 9 Q878 152 878 307.5 Q878 463 883 612 Q855 630 812.5 627.5 Q770 625 731 625 L621 609 L577 640 L577 669 L616 682 L644 671 Q703 687 763.5 687 Q824 687 892 687 L945 634 L945 451 Q945 325 936.5 199.5 Q928 74 911 -56 L877 -63 L855 -51 L753 -62 L535 -51 L506 -64 ZM574 74 L716 200 L650 205 L573 183 L563 186 L563 152 L577 77 L574 74 ZM203 536 L191 578 L131 616 L124 652 L177 666 Q190 641 211.5 630.5 Q233 620 249 604 L267 598 L274 562 L203 536 Z" /><glyph glyph-name="" unicode="&#x6d3b;" d="M555 -113 L507 -59 L479 136 L497 173 L533 180 L547 141 L540 108 L573 -48 L596 -64 L596 -93 L555 -113 ZM196 -101 L155 -47 L149 53 L166 275 L108 395 L151 409 Q199 356 218.5 300 Q238 244 227 172 Q216 128 213.5 82.5 Q211 37 211 -5 L209 -3 L277 92 L307 92 L320 52 L219 -94 L196 -101 ZM702 -82 L680 -39 Q722 3 768.5 30.5 Q815 58 851 105 L855 156 L791 156 Q738 156 694.5 134.5 Q651 113 602 94 L587 137 Q652 190 729.5 206.5 Q807 223 892 217 Q917 197 917 171 Q917 145 917 124 Q917 89 897 63.5 Q877 38 858 22 L895 9 L902 -28 Q846 -41 797.5 -46 Q749 -51 702 -82 ZM595 177 L583 219 Q617 253 627.5 292.5 Q638 332 633 375 L623 375 Q568 358 515 347 Q462 336 414 290 L380 331 L393 357 Q445 392 505 405.5 Q565 419 616 435 L621 489 L609 559 L650 573 Q683 547 680.5 510.5 Q678 474 685 454 Q745 479 814 493 Q883 507 959 512 L974 469 Q902 440 828.5 429 Q755 418 688 398 L688 381 L694 286 L631 184 L595 177 ZM509 526 L494 569 Q559 599 610.5 642.5 Q662 686 730 710 L744 662 Q685 621 633 580 Q581 539 509 526 ZM271 555 L259 593 L167 610 L159 644 Q174 665 194.5 665 Q215 665 233 665 L335 619 L343 585 Q323 572 308 563.5 Q293 555 271 555 Z" /><glyph glyph-name="" unicode="&#x70ed;" d="M635 798 L635 680 Q630 622 577 618 Q524 585 477 548.5 Q430 512 368 495 Q348 467 329.5 465 Q311 463 319 516 Q315 565 323 610 Q340 651 397 643 Q426 655 459 671 Q499 684 521.5 706.5 Q544 729 528 761 Q454 753 384.5 753 Q315 753 274 782 Q250 774 252 741 Q254 708 248 681.5 Q242 655 184 671 Q135 680 94 671 Q57 655 86 610 Q123 602 168 606 Q213 610 243.5 597.5 Q274 585 262 536 Q254 479 250 428 Q246 377 192 360 Q147 323 124.5 264 Q102 205 147 151 Q164 119 188 90 Q221 53 249.5 49 Q278 45 296.5 104.5 Q315 164 315 243.5 Q315 323 336 389 Q368 422 411 456.5 Q454 491 495 516 Q520 467 536 491 Q557 508 579.5 538.5 Q602 569 626 553 Q610 512 597.5 460.5 Q585 409 557 397 Q540 413 513.5 433.5 Q487 454 459 454 Q438 454 442 409 Q483 377 518 338 Q553 299 520 242 Q495 209 504 184 Q520 151 536 147 Q561 143 573 184 Q577 221 587.5 254 Q598 287 626 246 Q655 213 688 233 Q716 246 688 287 Q659 307 630 323 Q610 340 630 385 L700 585 Q737 569 721 524 Q712 475 712 442 Q675 295 757 227.5 Q839 160 978 168 Q1032 180 1017.5 219 Q1003 258 966 276.5 Q929 295 921 242 Q917 225 876 233.5 Q835 242 819 250 Q770 287 765.5 350 Q761 413 775.5 481 Q790 549 798 596 Q806 643 778 647 L712 655 Q688 663 700 716 Q708 757 698 784 Q688 811 635 798 ZM319 721 Q356 725 350 706.5 Q344 688 319 700 L319 721 ZM242 328 Q274 319 260 274 Q246 229 246 197 Q250 143 231.5 151.5 Q213 160 194.5 194.5 Q176 229 188 250 Q192 278 212.5 292.5 Q233 307 242 328 ZM360 57 Q352 -8 405.5 -39 Q459 -70 499 -102 Q532 -74 513.5 -51.5 Q495 -29 464.5 -8.5 Q434 12 426 33 Q405 61 360 57 ZM864 57 Q884 0 876 -59.5 Q868 -119 843 -164 Q880 -192 913 -157.5 Q946 -123 942 -78 Q962 -29 939.5 14 Q917 57 864 57 ZM626 33 Q581 8 605.5 -35 Q630 -78 671 -90 Q712 -111 716 -53 Q688 -41 673.5 -8 Q659 25 626 33 ZM8 -8 Q-4 -45 26.5 -80 Q57 -115 102 -127 Q156 -143 188 -135 Q172 -90 125 -65.5 Q78 -41 45 -8 L8 -8 Z" /><glyph glyph-name="" unicode="&#x7136;" d="M517 -166 L503 -159 Q485 -107 469 -58 Q453 -9 428 46 L471 60 Q513 12 526.5 -40.5 Q540 -93 558 -153 L517 -166 ZM95 -161 L74 -126 Q110 -80 153 -36 Q196 8 219 59 L255 65 L268 20 Q251 -32 209.5 -71 Q168 -110 128 -155 L95 -161 ZM757 -79 L677 -39 L647 29 L690 44 L740 -13 L768 -17 Q792 3 821 28.5 Q850 54 890 48 Q913 43 938.5 34.5 Q964 26 982 1 L1000 -60 L958 -75 L908 -18 L864 -14 Q845 -39 819 -59 Q793 -79 757 -79 ZM132 7 L118 48 Q164 116 207.5 179 Q251 242 281 302 Q266 314 238.5 308 Q211 302 185 328 L173 353 L202 402 L302 458 Q285 484 253.5 491.5 Q222 499 185 499 L179 535 Q193 556 213.5 556 Q234 556 256 556 Q286 550 311.5 535.5 Q337 521 354 493 L359 485 L411 594 L386 598 Q317 604 258 579.5 Q199 555 134 525 L113 561 L242 796 L271 796 L290 746 L277 721 Q256 704 245.5 677 Q235 650 223 635 L229 633 Q282 654 345.5 656.5 Q409 659 473 659 L487 620 L438 513 L436 515 Q443 521 455 533 Q467 545 488 539 L498 529 L615 575 L593 649 L613 675 L656 675 L682 663 L688 628 L666 616 L666 605 L670 588 L687 588 L884 627 L869 631 L795 768 L816 796 L844 796 Q867 754 886.5 718.5 Q906 683 924 641 L916 633 L918 633 L954 638 L967 596 Q903 555 825.5 549 Q748 543 683 528 L683 513 L693 493 Q774 428 845 346 Q916 264 983 180 L983 147 L941 133 Q879 213 814 289 Q749 365 681 418 Q671 340 635.5 263 Q600 186 544 118 L509 112 L495 153 Q557 230 594.5 316.5 Q632 403 627 502 L610 510 L457 461 L430 481 L429 491 L356 320 L368 278 L326 266 Q300 203 256 139.5 Q212 76 167 15 L132 7 ZM310 361 L310 365 L320 395 L321 395 L273 371 L310 361 Z" /><glyph glyph-name="" unicode="&#x7231;" d="M504 815 Q471 802 411.5 806.5 Q352 811 301 811 Q250 811 242 774 Q307 729 405.5 743 Q504 757 602 753 Q614 802 583.5 812.5 Q553 823 504 815 ZM205 729 Q192 675 227 630 Q262 585 274 532 Q278 512 253.5 493.5 Q229 475 204.5 481 Q180 487 184 524 Q147 577 120.5 548.5 Q94 520 127 467 Q147 426 147 368.5 Q147 311 169.5 272 Q192 233 270 254 Q319 258 317 250 Q315 242 296.5 219.5 Q278 197 287 168 Q233 86 180 2 Q127 -82 86 -176 Q115 -201 135 -176 Q164 -160 182.5 -123 Q201 -86 211 -63.5 Q221 -41 233 -53 Q254 -65 272.5 -83.5 Q291 -102 315 -102 Q368 -119 407 -100.5 Q446 -82 481 -55.5 Q516 -29 544 -16 Q696 -164 897 -237 Q942 -209 925 -180 Q909 -160 856 -164 Q782 -123 706 -76 Q630 -29 581 45 Q626 94 661 161.5 Q696 229 671 311 Q622 315 577 284.5 Q532 254 479 246 Q459 233 430 223 Q401 213 384.5 219 Q368 225 393 266 Q438 311 511.5 323.5 Q585 336 643 373 Q671 381 675 409 Q688 434 651 446 Q692 467 725 499 Q761 524 778 561 Q761 585 721 585 Q688 585 651 581 Q618 569 606 585 Q626 610 650.5 655 Q675 700 635 716 Q598 688 571 645 Q544 602 504 569 Q487 557 485 575.5 Q483 594 479 610 Q475 626 446 618 Q430 643 407.5 679.5 Q385 716 344 688 Q344 635 376.5 606 Q409 577 434 553 Q397 524 356 540 Q315 549 305 594 Q295 639 274 688 Q262 733 205 729 ZM590 569 L598 569 Q610 581 604 567 Q598 553 590 569 ZM532 504 Q569 512 606 508 Q643 504 598 487 Q557 463 520 442 Q487 413 479 368 Q430 364 438 391 Q446 418 475 426 Q475 450 456.5 462.5 Q438 475 434 487 Q430 491 467 495 L532 504 ZM368 475 Q397 479 393 464.5 Q389 450 374.5 423.5 Q360 397 368 368 Q352 336 307 329.5 Q262 323 229 315 Q217 319 209 356 Q205 385 213 413 Q221 434 242 422 L368 475 ZM573 418 L581 418 Q602 426 591.5 413.5 Q581 401 573 418 ZM540 409 L557 409 Q581 418 573 405 Q565 385 540 409 ZM532 397 L536 397 Q553 405 540 389 Q536 377 532 397 ZM581 221 Q614 213 590 180 L557 119 Q540 78 516 90 Q491 94 468.5 120.5 Q446 147 442 164 L581 221 ZM340 119 Q393 119 430 94 Q467 61 487 20 Q446 -16 381 -37 Q311 -65 270 -8 Q266 45 291 70 L340 119 Z" /><glyph glyph-name="" unicode="&#x7269;" d="M249 -122 L116 22 L98 65 Q121 107 160 131.5 Q199 156 233 185 L239 185 L239 326 L230 462 L214 462 L109 440 L67 458 L54 500 L88 653 L123 661 Q137 645 137 627.5 Q137 610 137 592 Q127 570 124 546 Q121 522 117 505 L137 502 L229 522 L229 539 L223 655 L248 702 L282 710 L296 670 Q280 641 282.5 609 Q285 577 285 547 L292 540 L403 563 L416 521 Q385 494 352 491.5 Q319 489 296 480 L291 392 L301 228 L305 228 L348 241 L362 198 L301 153 L301 135 L307 48 L290 -116 L249 -122 ZM852 -112 Q800 -95 753.5 -70 Q707 -45 661 -11 L654 25 L695 39 Q735 9 775.5 -15 Q816 -39 861 -50 Q890 -20 906 23 Q922 66 933 108 L933 342 Q922 375 922 415 Q922 455 904 478 L841 484 L841 458 L848 391 Q808 275 734 170.5 Q660 66 600 -45 L564 -52 L550 -12 Q612 101 688 207 Q764 313 786 433 L787 432 Q725 355 643 292 Q561 229 489 150 L460 150 L447 190 L587 443 L579 445 L497 418 L470 430 L458 462 Q480 530 494 603.5 Q508 677 536 746 L577 753 L597 700 L573 688 L531 486 L531 486 Q616 523 714.5 534 Q813 545 913 545 Q937 538 949 518.5 Q961 499 972 481 L995 343 L995 107 Q983 57 964 7 Q945 -43 911 -88 L852 -112 ZM239 -26 L239 42 L245 118 L243 118 L168 58 L241 -25 L239 -26 ZM585 320 L735 469 L695 473 L660 453 L587 316 L584 319 L585 320 ZM745 479 L748 475 L752 479 L748 483 L745 479 Z" /><glyph glyph-name="" unicode="&#x7292;" d="M873 -134 L785 -81 L785 -52 L824 -38 L877 -65 L900 -42 Q916 32 921.5 113.5 Q927 195 927 274 Q909 292 877.5 289.5 Q846 287 819 287 Q737 281 658.5 270.5 Q580 260 500 232 L474 252 L474 280 Q582 326 697 337 Q812 348 936 348 L976 313 Q994 272 991.5 228 Q989 184 989 140 Q977 79 971.5 13 Q966 -53 931 -105 L873 -134 ZM256 -113 Q197 -77 172.5 -22 Q148 33 100 69 L70 82 L64 115 Q105 150 146 183 Q187 216 228 231 L228 467 L224 467 L63 411 L42 446 Q76 503 86.5 562 Q97 621 103 691 L139 699 Q159 666 156.5 632 Q154 598 154 565 L127 491 L125 492 Q145 506 175 514.5 Q205 523 228 532 L212 671 L231 698 L260 698 Q273 654 279 612.5 Q285 571 285 534 L332 534 L364 540 L377 499 Q357 473 331 473 Q305 473 290 473 L290 285 L289 285 Q301 297 321.5 311.5 Q342 326 370 326 L384 286 L290 208 L285 80 L290 -92 L256 -113 ZM417 -57 Q387 -21 387 24.5 Q387 70 387 113 Q392 152 394.5 193.5 Q397 235 422 272 L456 278 L470 239 Q453 183 450.5 126 Q448 69 448 10 L466 -29 L445 -57 L417 -57 ZM589 -31 L556 2 Q556 41 548 75.5 Q540 110 522 145 L541 190 L577 196 L592 160 Q637 184 697.5 187 Q758 190 826 190 Q847 176 844 155.5 Q841 135 841 116 L791 66 L834 52 L842 17 L804 -2 L721 3 L659 -9 L632 11 L632 40 Q668 69 706 85 Q744 101 766 124 L705 129 L616 107 L606 74 L623 -10 L589 -31 ZM228 -5 L228 69 L223 135 L227 167 L225 167 L156 106 L230 -3 L228 -5 ZM540 363 L525 370 Q507 401 507 431.5 Q507 462 501 496 L519 544 L553 551 L563 541 Q614 572 680.5 574.5 Q747 577 817 577 L831 527 L777 462 L794 420 Q749 401 705.5 398.5 Q662 396 621 373 L586 414 L619 446 Q658 452 690 470.5 Q722 489 741 512 L698 516 Q661 516 626.5 505.5 Q592 495 563 476 L563 468 Q568 447 570.5 425 Q573 403 581 377 L540 363 ZM394 571 L379 613 Q434 643 495 648.5 Q556 654 611 654 L626 724 L615 766 L656 781 Q682 761 685 735 Q688 709 688 680 L685 670 L698 670 L910 682 L925 638 Q787 620 658.5 604 Q530 588 394 571 Z" /><glyph glyph-name="" unicode="&#x732b;" d="M180 -146 L128 -111 L115 -66 L158 -51 Q170 -71 182.5 -80.5 Q195 -90 212 -86 L275 -22 Q297 30 297 95 Q297 160 297 224 L287 268 L284 268 Q247 216 203.5 167 Q160 118 109 67 L79 67 L67 107 Q123 164 172 223.5 Q221 283 257 340 L209 458 Q193 435 165 395.5 Q137 356 91 339 L63 339 L50 380 Q96 410 128.5 453 Q161 496 187 532 Q177 566 152.5 596 Q128 626 115 666 L156 679 Q181 667 195.5 644 Q210 621 221 598 L221 586 L228 586 Q243 617 270.5 646.5 Q298 676 326 711 L361 718 L375 677 L249 519 L296 383 L318 378 L326 344 L320 335 Q352 281 357.5 212 Q363 143 358 72 Q352 22 335 -28 Q318 -78 274 -119 Q250 -129 230.5 -137.5 Q211 -146 180 -146 ZM629 -137 L602 -117 L602 -88 L667 -29 L667 121 L609 121 L545 91 L530 134 Q562 165 598.5 176 Q635 187 667 183 L667 192 L651 287 L670 313 L699 313 Q718 281 721 245 Q724 209 728 182 Q762 177 804 168.5 Q846 160 882 130 L888 97 L787 -14 L754 -39 Q772 -42 805.5 -42 Q839 -42 862 -55 Q887 14 913.5 87 Q940 160 929 246 Q924 273 916.5 298.5 Q909 324 884 339 Q848 350 804.5 350 Q761 350 718 350 Q682 345 651.5 328.5 Q621 312 577 305 L563 347 Q628 395 699.5 406 Q771 417 849 411 Q883 411 908.5 396.5 Q934 382 957 354 Q974 314 985.5 270 Q997 226 991 175 Q985 109 960.5 51.5 Q936 -6 914 -69 L898 -74 L892 -106 L865 -121 Q835 -103 801 -103 Q767 -103 735 -103 L629 -137 ZM509 -93 L495 -85 Q449 5 441 104 Q433 203 428 303 L446 340 L478 346 L511 321 L511 292 L489 282 L489 253 Q494 165 502.5 81.5 Q511 -2 551 -78 L509 -93 ZM741 28 L809 106 L729 120 L729 20 L729 20 L741 28 ZM741 420 L727 461 Q750 490 763.5 516.5 Q777 543 777 568 L751 568 L609 547 L609 538 L644 462 L601 447 L565 489 L545 541 L418 530 L404 571 Q437 597 473 594.5 Q509 592 536 596 L536 606 L514 672 L532 733 L567 739 Q581 724 581 709.5 Q581 695 581 676 L577 671 L602 603 L782 629 L782 694 L771 765 L813 778 Q838 746 840.5 706.5 Q843 667 843 636 L925 636 L984 641 L998 601 Q978 575 952.5 563.5 Q927 552 894 552 L883 574 L847 574 L776 428 L741 420 Z" /><glyph glyph-name="" unicode="&#x73b0;" d="M479 827 Q467 786 485.5 739 Q504 692 516 626 Q524 536 520 442 Q516 340 569 291 Q577 258 544 233 Q520 205 495 184 Q499 139 466.5 100 Q434 61 405 25 Q385 4 358.5 -18.5 Q332 -41 307 -45 Q303 -16 284.5 -24.5 Q266 -33 262 -57.5 Q258 -82 274 -102 Q323 -123 362 -98.5 Q401 -74 434 -35 Q467 4 495 29 Q499 49 517.5 73.5 Q536 98 544 102 Q561 102 557 57 Q569 -25 626 -57 Q692 -90 766 -86 Q847 -86 917 -61 Q991 -57 1011 0 Q1032 49 1015 119 L970 278 Q929 225 943.5 149.5 Q958 74 946 16 Q888 -16 812.5 -26.5 Q737 -37 671 -8 Q614 20 614 106 Q590 156 604 203 Q618 250 655 278 Q708 242 734.5 297 Q761 352 770 401 Q790 454 808.5 536 Q827 618 804.5 673.5 Q782 729 675 712 Q651 708 624.5 689.5 Q598 671 579.5 671 Q561 671 565 716 Q553 757 540 798 Q532 831 479 827 ZM213 651 Q184 635 133 628.5 Q82 622 43 610 Q4 598 4 557 Q45 540 96 558.5 Q147 577 176 561 Q180 475 160 409 Q127 426 90 428 Q53 430 36.5 417.5 Q20 405 57 373 Q115 356 137.5 290.5 Q160 225 139 164 Q127 102 70 78 Q37 61 4 25 Q-20 -16 29 -41 Q74 0 123 41 Q164 86 221 106 Q246 156 289 196.5 Q332 237 360 282 Q397 323 401 377 Q364 381 341.5 334 Q319 287 287 270 Q262 237 247.5 239.5 Q233 242 258 278 Q291 307 274 340 Q266 377 229 385 Q221 434 227 505.5 Q233 577 278 594 Q307 630 280.5 646.5 Q254 663 213 651 ZM671 643 Q741 655 749 620 Q757 585 745 530 Q733 475 716 446 Q708 413 702 366 Q696 319 663 328 Q680 368 680 419.5 Q680 471 657.5 507.5 Q635 544 581 532 Q577 581 606 605.5 Q635 630 671 643 ZM581 487 Q606 479 608 440 Q610 401 604 380.5 Q598 360 581 409 L581 487 ZM135 352 Q164 356 166 339.5 Q168 323 155.5 317 Q143 311 135 336 L135 352 ZM221 328 L229 328 Q246 323 229 311 Q217 291 221 328 ZM229 229 L233 229 Q250 237 241.5 223 Q233 209 229 229 Z" /><glyph glyph-name="" unicode="&#x751f;" d="M282 -129 L248 -89 L268 -62 Q320 -45 374.5 -37 Q429 -29 469 -4 L469 2 L400 69 Q369 74 333 82.5 Q297 91 267 115 L255 146 Q290 199 340 237.5 Q390 276 439 304 L490 325 L495 445 L476 445 L221 390 L189 429 L300 707 L337 715 L350 669 L271 463 L294 463 Q342 474 394 487.5 Q446 501 495 506 L495 604 L490 710 L521 752 L550 752 L564 712 Q547 690 549.5 663.5 Q552 637 552 610 L556 523 L577 523 Q631 539 686 555.5 Q741 572 807 578 L820 534 Q749 511 683 492 Q617 473 557 463 L557 343 Q622 348 685.5 339.5 Q749 331 808 291 L814 242 Q758 169 692 103 Q626 37 553 -13 L545 -13 L539 -28 L535 -30 L590 -34 L770 -29 L933 -39 L981 -27 L995 -75 Q962 -100 925.5 -100 Q889 -100 851 -100 L595 -90 Q518 -95 436.5 -95 Q355 -95 282 -129 ZM557 63 L748 258 Q713 276 659.5 278.5 Q606 281 557 281 L552 59 L554 59 L557 63 ZM490 72 L490 228 L495 264 L495 264 Q450 244 407 212 Q364 180 334 149 Q367 141 414.5 127 Q462 113 492 73 L490 72 Z" /><glyph glyph-name="" unicode="&#x7684;" d="M780 -182 Q735 -172 688 -155.5 Q641 -139 602 -115 Q584 -92 572.5 -67 Q561 -42 555 -11 L575 15 L604 15 L649 -74 Q679 -95 713.5 -105.5 Q748 -116 784 -120 Q814 -90 835 -55 Q856 -20 879 17 Q905 92 913 171 Q921 250 921 331 Q916 369 913.5 409 Q911 449 890 480 Q871 494 845 491.5 Q819 489 792 489 L566 412 L541 425 Q523 454 520.5 485.5 Q518 517 518 551 L574 724 L615 732 L629 691 Q605 645 589 594.5 Q573 544 579 490 L583 479 L598 479 Q663 506 729 533.5 Q795 561 880 550 L938 521 Q972 458 977.5 386.5 Q983 315 983 243 Q977 144 950 56.5 Q923 -31 873 -114 L810 -177 L780 -182 ZM115 14 Q76 128 70 248.5 Q64 369 53 484 Q53 556 86.5 612 Q120 668 171 719 L214 731 L241 711 L241 683 L173 632 Q137 596 126 548 Q115 500 115 449 L120 443 Q166 484 227 503.5 Q288 523 362 518 L408 493 Q437 403 439.5 304.5 Q442 206 442 106 L424 64 L390 57 L370 85 Q387 136 384 195.5 Q381 255 381 309 L360 451 L268 456 Q226 446 191 419 Q156 392 121 377 L121 354 L135 286 Q167 305 209 313 Q251 321 296 315 L333 304 L339 265 Q322 219 286.5 183.5 Q251 148 238 114 L239 114 L364 148 L378 105 Q324 69 269.5 60.5 Q215 52 163 23 L160 26 Q157 20 144.5 17 Q132 14 115 14 ZM153 95 Q175 138 205 179.5 Q235 221 260 250 L214 254 L173 239 L162 217 L132 202 L156 98 L153 95 ZM707 105 Q671 148 652 191.5 Q633 235 600 274 L600 303 L641 316 Q677 269 701.5 222.5 Q726 176 750 120 L707 105 Z" /><glyph glyph-name="" unicode="&#x76c8;" d="M146 -127 L119 -108 L119 -78 Q206 -60 287.5 -54.5 Q369 -49 426 -33 Q428 -34 416 -21.5 Q404 -9 397 9 L382 102 L372 102 L310 72 L306 53 Q311 34 325 14.5 Q339 -5 333 -38 L292 -53 Q261 2 245 59.5 Q229 117 206 175 L226 202 L253 202 L278 183 L288 128 Q396 185 519.5 196 Q643 207 771 213 Q792 199 792 181 Q792 163 792 145 L723 -7 L753 -11 L852 -6 L869 -11 L987 -6 L1000 -53 Q967 -73 928.5 -67.5 Q890 -62 857 -73 L759 -68 L616 -84 L541 -78 Q443 -94 347 -108 Q251 -122 146 -127 ZM556 -17 L556 -12 L561 51 L561 51 L471 -31 L480 -33 L556 -17 ZM659 -18 L659 1 Q688 35 704 75.5 Q720 116 729 151 L688 151 Q628 140 560 137.5 Q492 135 438 115 L456 32 Q481 52 509 85.5 Q537 119 585 125 L612 106 L622 -7 L619 -23 L643 -23 L659 -18 ZM386 93 L373 109 L386 122 L402 109 L386 93 ZM630 233 L594 275 L594 301 L606 314 Q587 326 557.5 334 Q528 342 499 347 L446 260 L415 260 L403 299 L428 355 L376 371 L370 407 L409 420 L466 415 L508 471 L502 472 L408 439 L381 459 L381 487 L389 501 L599 552 L613 511 L534 406 L649 359 L655 324 L640 309 L647 295 L654 295 Q686 305 719 316.5 Q752 328 785 328 L790 402 Q775 438 750.5 470 Q726 502 695 529 L606 568 L600 600 Q605 629 624.5 654 Q644 679 655 694 L644 697 Q541 659 426.5 661.5 Q312 664 206 631 L163 662 L163 691 L203 705 L219 693 Q337 726 465.5 726 Q594 726 719 760 L732 707 L670 604 Q695 599 726 579.5 Q757 560 785 527 Q824 482 843.5 429 Q863 376 851 307 L815 266 Q764 266 721 255 Q678 244 630 233 ZM170 243 L157 284 Q246 363 297.5 461 Q349 559 399 659 L435 666 L449 626 Q392 531 343 429.5 Q294 328 204 250 L170 243 Z" /><glyph glyph-name="" unicode="&#x76db;" d="M163 -182 L126 -164 L118 -129 L157 -116 L229 -121 L261 -116 L261 -112 Q245 -69 245 -19.5 Q245 30 233 75 L251 129 L285 136 Q301 121 301 106 Q301 91 301 77 L296 72 Q306 31 306 -20 Q306 -71 325 -104 L370 -104 Q425 -94 482.5 -88.5 Q540 -83 594 -78 Q594 -28 605 21 Q616 70 611 118 L562 118 L474 102 L470 64 L492 -44 L450 -59 Q425 -21 419.5 18 Q414 57 405 85 L352 80 L326 99 L326 129 Q441 157 553 173.5 Q665 190 788 184 Q809 174 837 171 Q865 168 884 142 L891 62 L822 -62 L981 -78 L990 -114 L951 -133 L796 -128 Q639 -133 480.5 -149.5 Q322 -166 163 -182 ZM744 -67 Q781 -25 805 20 Q829 65 829 113 L672 122 Q678 74 666.5 22 Q655 -30 650 -73 L666 -78 L744 -67 ZM872 182 Q825 218 784 264.5 Q743 311 711 343 L653 244 L618 236 L604 277 L686 407 L559 620 L272 577 L225 415 L224 416 Q269 457 325 482 Q381 507 449 501 L485 483 L503 419 Q497 388 477 366 Q457 344 435 321 Q401 299 367.5 279.5 Q334 260 293 260 L266 279 L266 309 Q319 315 359 342 Q399 369 430 405 L439 440 L378 440 Q331 424 287.5 389 Q244 354 201 311 L144 227 L116 227 L96 260 Q136 334 160.5 412.5 Q185 491 210 563 L206 565 L150 554 L117 593 L138 621 Q245 632 345.5 645.5 Q446 659 537 680 L495 796 L515 823 L545 823 L594 687 L638 687 Q675 692 711 700 Q747 708 796 703 L810 661 Q760 642 710.5 639.5 Q661 637 625 623 L718 463 L722 463 Q737 483 753 504 Q769 525 775 550 L812 557 L825 504 L754 402 Q775 368 804 335.5 Q833 303 859 278 L861 285 L853 292 L875 321 L904 321 Q917 301 922.5 278.5 Q928 256 928 232 L910 196 L872 182 ZM867 262 L867 264 L869 261 L870 261 L867 263 L867 262 ZM899 587 Q873 617 853.5 647.5 Q834 678 828 723 L871 737 Q889 700 911 672.5 Q933 645 940 600 L899 587 Z" /><glyph glyph-name="" unicode="&#x7736;" d="M663 786 Q590 770 499.5 768 Q409 766 344 737 Q344 712 356 696 Q377 684 387 669.5 Q397 655 381 626 Q389 495 368 373 Q356 246 352 131 Q348 8 381 -111 Q405 -143 440 -129 Q475 -115 509.5 -92.5 Q544 -70 590 -70 Q671 -37 777.5 -24.5 Q884 -12 978 -41 Q1023 -37 1023 -12.5 Q1023 12 996.5 32.5 Q970 53 943.5 53 Q917 53 892 45 Q876 29 843 45 Q782 20 708 16 Q643 12 577 -8 Q544 -8 504 -20 Q471 -37 442 -33 Q422 -33 426 25 L426 328 Q438 356 442 362 Q446 368 475 352 Q504 368 551 378.5 Q598 389 626 377 Q630 356 636.5 319 Q643 282 628.5 259.5 Q614 237 569 250 Q516 266 487.5 243.5 Q459 221 473 198.5 Q487 176 553 184 L856 213 Q876 254 843 266 Q811 270 766 268 Q721 266 700 282 Q700 332 696 372.5 Q692 413 749 413 Q782 413 800.5 433.5 Q819 454 811 471 Q811 491 772 479 Q733 467 702 469 Q671 471 667 516 Q647 540 641 560.5 Q635 581 692 577 Q737 561 782 571 Q827 581 794 622 Q712 639 622 632.5 Q532 626 479 590 Q475 536 509.5 542.5 Q544 549 577 551 Q610 553 598 495 Q610 463 577 450 Q553 446 516 440 Q479 434 459 418 Q438 409 438 431.5 Q438 454 442 491 Q450 520 446 549 Q442 610 460.5 661 Q479 712 540 708 L675 733 Q749 745 802 725 Q847 729 847 751.5 Q847 774 818.5 788 Q790 802 749 786 L663 786 ZM8 700 Q8 610 24.5 505.5 Q41 401 29 287 Q37 192 14.5 102 Q-8 12 20 -61 Q53 -61 57 -33 Q70 -12 76 16.5 Q82 45 115 45 Q147 70 180 90 Q217 102 217 41 Q229 -8 251.5 2 Q274 12 287 49 Q299 78 278 111 Q274 139 288.5 161.5 Q303 184 305 202.5 Q307 221 278 229 L278 467 Q278 585 299 680 Q254 708 194.5 700 Q135 692 86 675 Q66 671 49 688 Q41 708 8 700 ZM156 630 Q192 647 217 624.5 Q242 602 217 561 Q221 508 172 514 Q123 520 86 540 Q78 585 100.5 605.5 Q123 626 156 630 ZM590 561 L606 561 Q618 569 612 556.5 Q606 544 590 561 ZM123 459 Q164 467 192 459 Q229 446 213 397 Q209 360 162 364 Q115 368 94 364 L94 426 Q94 454 123 459 ZM164 319 Q205 332 211 309.5 Q217 287 176 299 Q188 250 190 200.5 Q192 151 143 135 Q115 119 96.5 112.5 Q78 106 86 155.5 Q94 205 98 258 Q102 311 164 315 L164 319 Z" /><glyph glyph-name="" unicode="&#x7740;" d="M523 -150 L495 -130 L495 -104 Q519 -68 552.5 -41 Q586 -14 606 0 L584 3 L471 -19 L456 23 Q511 53 566.5 58.5 Q622 64 683 64 L715 52 L721 18 L612 -70 L616 -71 Q654 -61 700.5 -61 Q747 -61 786 -56 Q796 -6 798.5 51 Q801 108 801 167 L791 244 L677 244 Q613 227 553 208 Q493 189 430 161 L424 165 L421 129 Q426 64 434 4.5 Q442 -55 454 -121 L411 -134 Q376 -58 370 24.5 Q364 107 359 190 L364 209 L366 207 Q310 131 247.5 46 Q185 -39 106 -117 L77 -117 L64 -77 Q148 24 229.5 122 Q311 220 356 325 L355 325 L179 264 L151 284 L151 313 Q243 354 335.5 391.5 Q428 429 512 467 L512 478 L497 478 L252 445 L238 488 Q310 512 378 520 Q446 528 512 538 L512 549 L503 587 L486 587 L265 554 L239 574 L239 604 Q326 621 402.5 635 Q479 649 554 658 L544 687 L616 769 L609 797 Q624 812 639 815 Q654 818 676 818 L688 773 Q670 737 642.5 706.5 Q615 676 596 656 L606 654 Q643 659 683.5 659 Q724 659 759 677 Q774 664 783.5 654 Q793 644 785 622 Q732 598 669 598 Q606 598 559 589 L577 546 Q604 556 643 561.5 Q682 567 725 560 L738 519 L567 431 L565 420 L589 420 Q654 436 722 452.5 Q790 469 866 469 L881 419 Q760 396 645 371.5 Q530 347 417 331 L421 308 L402 270 L425 265 L432 233 L427 213 L426 213 Q510 261 607 288 Q704 315 810 305 L846 274 Q858 212 863 151.5 Q868 91 863 24 Q852 -8 852 -44 Q852 -80 827 -111 Q748 -123 672 -125.5 Q596 -128 523 -150 ZM455 67 L440 111 Q499 141 565.5 157.5 Q632 174 709 167 L722 125 Q650 107 584.5 98.5 Q519 90 455 67 ZM447 646 Q410 659 390.5 690 Q371 721 355 749 L347 775 L367 801 L395 801 Q420 782 425.5 755 Q431 728 451 713 L486 689 L486 660 L447 646 Z" /><glyph glyph-name="" unicode="&#x793c;" d="M291 -124 Q272 -69 269 -11 Q266 47 266 96 L264 96 Q227 75 194 45 Q161 15 113 3 L86 22 L86 49 Q136 116 171.5 189.5 Q207 263 247 342 L277 347 L277 389 L276 390 L78 324 L63 367 Q129 403 191.5 424.5 Q254 446 325 458 Q344 415 341.5 367.5 Q339 320 339 276 L328 203 L328 202 Q362 222 400.5 249.5 Q439 277 489 290 L504 247 Q456 212 404.5 184.5 Q353 157 322 117 L334 -110 L291 -124 ZM818 -112 Q779 -106 737 -103 Q695 -100 667 -65 Q605 7 594 100.5 Q583 194 572 287 L572 601 L592 626 L618 626 L634 613 L634 288 Q645 206 653 122.5 Q661 39 708 -24 Q739 -45 781.5 -45 Q824 -45 866 -50 L927 1 L944 249 L981 257 Q994 201 994 140.5 Q994 80 994 24 L955 -65 Q925 -89 891 -103 Q857 -117 818 -112 ZM214 134 L266 176 L272 268 L274 267 L204 125 L203 127 L214 134 ZM277 279 L277 280 L280 277 L280 278 L278 280 L277 279 ZM247 526 L232 568 Q250 585 250 602.5 Q250 620 250 639 L214 654 L200 675 L219 719 L252 725 Q277 713 288.5 692.5 Q300 672 311 655 L311 586 L282 533 L247 526 Z" /><glyph glyph-name="" unicode="&#x795e;" d="M226 -206 L207 -161 Q212 -61 220 34 Q228 129 223 227 L218 260 L216 260 Q169 207 130.5 149.5 Q92 92 36 48 L16 41 Q-6 49 -6 62 Q-6 75 -6 93 Q82 198 172 302 Q262 406 327 511 L214 511 Q171 500 133 481 Q95 462 51 443 L36 486 L84 527 L196 565 Q201 595 209 627 Q217 659 213 692 L185 697 L178 733 L236 758 Q268 728 273 690.5 Q278 653 273 613 L255 577 L403 567 L410 527 Q382 465 341 409.5 Q300 354 259 304 Q266 297 276 287.5 Q286 278 281 266 Q312 266 346 257.5 Q380 249 408 221 L439 153 L398 139 L383 147 L335 200 L285 204 Q290 107 279 6 Q268 -95 262 -197 L226 -206 ZM729 -183 Q715 -169 711.5 -154 Q708 -139 708 -122 L714 20 L709 129 L666 129 L588 112 L561 132 L561 160 L708 263 L708 296 L703 302 L707 336 L645 336 Q631 331 616.5 314 Q602 297 574 304 L560 344 L614 387 L708 396 L708 440 L704 483 L666 483 L520 444 L505 487 Q555 511 601.5 525 Q648 539 698 544 L698 626 L670 736 L690 763 L719 763 Q737 710 751 654.5 Q765 599 760 544 Q796 544 843.5 544 Q891 544 926 522 Q955 492 966 455.5 Q977 419 972 373 Q956 314 942 256 Q928 198 899 140 L813 123 L770 133 L770 26 L776 -122 L763 -176 L729 -183 ZM498 95 Q452 183 452 278.5 Q452 374 429 469 L449 495 L485 495 L498 444 L492 438 Q508 365 513.5 277.5 Q519 190 542 108 L498 95 ZM714 192 L714 192 L714 193 L713 192 L714 192 ZM863 199 Q878 256 894.5 313 Q911 370 911 433 L875 483 L765 483 L765 447 L769 396 L873 375 L879 323 L776 231 L776 194 L828 184 L863 199 ZM770 308 L794 332 L769 335 L765 308 L768 306 L770 308 Z" /><glyph glyph-name="" unicode="&#x7d2f;" d="M253 -195 Q224 -153 199 -116.5 Q174 -80 167 -33 Q182 -18 197 -15 Q212 -12 234 -12 L246 -53 L237 -62 Q251 -86 270 -113.5 Q289 -141 295 -180 L253 -195 ZM485 -183 L458 -170 L452 -131 Q479 -103 479 -63.5 Q479 -24 479 14 L462 109 L467 117 L467 117 Q427 107 381 96 Q335 85 294 62 L266 83 L266 109 L274 123 L468 255 L420 260 L346 248 L325 283 L440 398 L426 401 L341 384 L325 406 L285 389 Q256 460 228.5 523 Q201 586 195 666 L226 708 L255 708 L268 670 L257 621 L329 431 L340 445 L463 493 L463 528 L459 549 L432 549 L307 521 L293 563 Q330 593 374.5 599 Q419 605 457 609 L457 615 L452 676 L455 686 L438 686 Q423 675 409 666.5 Q395 658 368 658 L343 678 L343 706 Q434 752 530.5 754.5 Q627 757 726 769 L811 735 Q830 710 830 676.5 Q830 643 830 615 Q825 564 803 520.5 Q781 477 769 425 Q699 407 622.5 412.5 Q546 418 488 403 L498 373 L455 325 L583 315 L590 280 L477 182 L491 179 Q539 195 592.5 209 Q646 223 695 252 Q714 214 741.5 181 Q769 148 777 103 L735 89 L669 171 L519 130 L519 125 Q535 71 537.5 13 Q540 -45 540 -106 L518 -171 L485 -183 ZM899 -145 L799 -40 L753 -29 L747 5 Q760 27 781.5 23.5 Q803 20 821 20 L940 -103 L940 -131 L899 -145 ZM721 477 Q747 524 760.5 580.5 Q774 637 769 693 Q746 702 713.5 704.5 Q681 707 650 707 Q617 691 576 696.5 Q535 702 508 688 L518 610 L661 599 L667 548 Q643 517 614.5 498 Q586 479 585 478 L718 474 L721 477 ZM554 533 L571 545 L519 548 L519 535 L527 520 L554 533 Z" /><glyph glyph-name="" unicode="&#x7eaf;" d="M577 786 Q544 774 552.5 731 Q561 688 569 643 Q577 598 557 561 Q504 561 454 581 Q405 594 370.5 587.5 Q336 581 319 520 Q295 442 266 356 Q246 266 205 192 Q205 242 198.5 291 Q192 340 176 373 Q217 418 194.5 467 Q172 516 94 499 Q135 553 184 598 Q242 639 270 700 Q242 725 213 706.5 Q184 688 161.5 655 Q139 622 119 606 Q90 585 51 554.5 Q12 524 4 499 Q-4 467 53 450 Q94 446 125 427.5 Q156 409 111 377 L37 336 Q-4 311 20 266 Q41 242 70 266 Q98 282 118.5 296.5 Q139 311 139 270 Q139 176 114.5 88 Q90 0 86 -78 Q111 -119 137.5 -82 Q164 -45 180 -20 Q192 20 208.5 67.5 Q225 115 258 147 Q340 123 407.5 164 Q475 205 528 229 Q495 57 591.5 -14.5 Q688 -86 839 -45 Q925 -45 983 -8 Q1048 29 1007 115 Q991 164 964 162 Q937 160 946 98 Q946 45 907 28.5 Q868 12 806 16 L700 16 Q647 20 618.5 67.5 Q590 115 590 180 Q590 237 618 282 Q671 295 718.5 327.5 Q766 360 823 340 Q806 278 761 231 Q716 184 663 164 Q651 180 647 208.5 Q643 237 635 250 Q635 266 626 225 Q602 164 632.5 117 Q663 70 721 111 Q753 151 798 188 Q843 225 870 272 Q897 319 876 385 Q839 422 790 413.5 Q741 405 696 382.5 Q651 360 614 356 Q610 401 640.5 436 Q671 471 689.5 503.5 Q708 536 663 561 Q635 569 643 604 Q651 639 630 671 Q635 716 628.5 751 Q622 786 577 786 ZM381 516 Q422 508 479 512 Q536 516 557 479 Q491 418 426 360 Q356 295 291 242 Q307 315 321.5 391 Q336 467 381 516 ZM532 368 Q561 344 532 319 Q504 287 479 278 Q446 254 421.5 254 Q397 254 434 287 L532 368 ZM397 250 L401 250 Q413 254 407 243.5 Q401 233 397 250 ZM278 242 L287 242 Q299 246 293 235.5 Q287 225 278 242 Z" /></font>
</defs>
</svg>
